<svg xmlns="http://www.w3.org/2000/svg" viewBox="0 0 948.18 240.03"><defs><style>.cls-1{fill:#fff;}.cls-2{fill:#ff2020;}</style></defs><g id="Layer_2" data-name="Layer 2"><g id="Main"><path class="cls-1" d="M44.47,34.32c-6.39,6.76-7.26,7.44-5.6,4a33.43,33.43,0,0,1,6.42-6.08c1.55-1.35,2.74-2,2.42-1.67C48,30.6,46.67,32,44.47,34.32Zm56.3-29c-1.63,3.05-.06,4.25,5.69,3.83,5-.37,7,0,4.1,1.94-1.91,1.28-1.48,1.64,1.09.74s3-.53,1.11.74-2.61,3.28-1.78,4.33-1.18,8.68-3.2,16.75c-2.26,12.25-7,21-13,31.63-14,25.33-27,53.2-38.53,80.37-3.72,9.14-5.21,17.68-4.49,18.55.89,1.09-.36,1.71-2.51,1.22-2.56-.58-3.66.37-3.11,2.58,1.33,5.39-3.91,17.88-8.76,19.82a21.47,21.47,0,0,1-9.27,1.14c-2.63-.31-6.36-1.35-7.3-2.51-12.95-16.07-11.2-49-6.54-73.18,8.29-27.94,21.82-49.91,40.1-72.51l-6.34-.13c-6.06-.12-6.24-.66.91-7.53,8.4-8.07,18.19-14.66,18-13C66.72,22.5,79.06,15,87,8.38c5.51-4.62,10.73-7.21,13-7.06C101.73,1.43,102.24,2.55,100.77,5.28ZM4.92,123.86a3.65,3.65,0,0,1-3.15,2.82C0,126.8-.35,125.47.35,124.14c1-1.87,2.29-2.77,3.2-2.82C4.77,121.25,5.24,121.88,4.92,123.86ZM7.09,163.3c.54,3,.47,5.32-.74,5.44-.91.09-2.36-2.12-2.9-5.09s.07-5.36,1-5.44C5.65,158.1,6.56,160.34,7.09,163.3Zm14.3-74.44c-1.36,3-3.18,5.32-4.38,5.36-.89,0-.85-2.27.52-5.26s3.43-5.33,4.32-5.35C23,83.58,22.74,85.88,21.39,88.86ZM86.09,26l-5.68.48C66.92,41,54.46,55.75,44.22,72.76c-13.33,23-21.48,49.48-21.08,75.9.08,4.83.44,27,6.61,26.3.94-2.1,1.69-5.14,1.3-6.75s1.13-6,3.62-9.83,4.49-8.48,4.37-10.07c-.13-1.92,1-3.61,2.24-3.71.91-.07,1.51-.91.86-1.66-.51-.58,1.91-8.45,6.81-17Q66.55,94.39,83,62.17c1.64-3.49,4.41-8,5.29-9.54,2.2-3.76,3.62-13.11,3.64-21.08,0-3.65-1-5.71-4.21-5.82A3.39,3.39,0,0,0,86.09,26ZM30.65,146.1c1,.89.21,3.58-1.1,5.92-1.52,2.72-2.68,3.49-2.8,2.52-.42-3.55,2.06-8.61,3.28-8.71C30.33,145.81,30.64,145.78,30.65,146.1ZM50.22,68.47c-1.27.67-1.27-.31.18-2.6,1.24-2,2.9-3.59,3.76-3.6C55.87,62.27,52.94,66.83,50.22,68.47ZM79.5,31.87c-2,.95-1.93.28-.71-1,1.51-1.64,3.3-2.94,4.37-2.9C85.29,28,83.45,30,79.5,31.87ZM48.92,182.73c.6,1.58.21,3-1,3.1a2.42,2.42,0,0,1-2.3-1.05,3.38,3.38,0,0,1,.83-2.76c.48-.38.67-.74,1-.77A2.9,2.9,0,0,1,48.92,182.73ZM55.37,178c2.81,4.58,2.17,5.31-1.07,1.43-1.45-1.47-2-3.05-1.56-3.74-.1-.32-.1-.32.2-.35S54.53,176.5,55.37,178Zm4.72-27.39c.33,3.13-1.18,3.27-2.73.24-1-1.17-.55-2.48.37-2.56A2.44,2.44,0,0,1,60.09,150.65Zm7.51,1.24c1.43,11.79,1,14.09-2.07,4.9a20.7,20.7,0,0,1-.63-10.63c.52-1.29.78-2.25,1.08-2.27C66.59,143.84,66.92,146.3,67.6,151.89Z"/><path class="cls-1" d="M156.87,12.69c3.65,1.15,2.85,2-6.49,14.75-6,8.23-12.06,16.78-17.47,25.38-3.95,6.3-6.21,11.55-5.35,11.54s0,2.27-1.77,4.84-2.72,4.86-1.56,4.83c.87,0,0,2.55-1.49,5.12-2.47,4.19-2.53,4.86.06,3.29,2-1.19,1.29-.35-1.66,2.72-8.46,8.8-9.82,24.64-10.52,36.11s-1.54,32.82,9.3,42c1.43.76,1.17,1.56-.14,1.83-1.87.39-2.3,3.88,3.87,16.11,3.38,6.71,6.93,12.83,8.59,20a16.45,16.45,0,0,1-9.31-5.52c-5.16-4.39-10.1-9.76-11.4-12.11-11.72-21.7-17.38-47.89-12.22-72.18,2-9.34,3.51-14.89,2-13.93-1.08.64-1.35-.6.16-3.33a27.6,27.6,0,0,0,2.57-10.06c.16-3.29.84-4.84,1.42-4s1.94-1.27,4.22-6.46a187,187,0,0,1,12.06-23.06c3.71-5.78,18.37-22.75,16.28-29.34-1.9.57.12-1.15,5.49-4.32,5.2-3.07,9-4.47,12-4.33ZM96.75,153.93A3.46,3.46,0,0,1,98,157.5c-.94,3.16-1.64,2.92-2.34-1-.32-1.81.15-2.78.76-2.83A.32.32,0,0,0,96.75,153.93ZM167.32,5.09c-1.3,1.24-3.08,2.45-4.09,2.39-.75,0-.21-1.32,1.11-2.56,1.64-1.55,3.39-2.43,4.13-2.39C169.46,2.59,169,3.55,167.32,5.09Zm-35.1,204.72c4.91,2.18,4.81,6.11-.74,6.33l-5.06.47,4.22-1.66c2.44-1,2.85-2.81,1.3-4.13-1.29-1.1-1.54-1.39-1-1.47C131,209.35,131.26,209.3,132.22,209.81Zm-16.91-92.37c-2,5.44-3.25,6.41-2.58,1.33a9.2,9.2,0,0,1,2.54-4.88l.36-.32C116.18,113.84,116,115,115.31,117.44Zm20.56-48.37a5,5,0,0,1-3.8,2.44,2.44,2.44,0,0,1-2.54-2.35c.13-1.44,1.85-2.42,3.86-2.45S136.64,67.57,135.87,69.07Zm-9.1,21.56a3.32,3.32,0,0,1-2.86,2.46c-.89,0-1.5-.83-1-2.33.41-1.2,1.72-2.43,2.61-2.46C126.7,88.27,127.16,89.43,126.77,90.63Z"/><path class="cls-1" d="M157,201.08c-.21,2.18-.5,3.83-1.08,3.91s-1.14-1.7-.95-3.62c.18-1.74.62-3.82,1.21-3.9S157.21,199.23,157,201.08ZM198.81,51.21c-2.68,3-1.16,4,7.82,4,1.68,0,2.22.56,1.49,1.4s-1.18,4.39-.36,7.57.8,8-.14,10.56-.72,4.44.15,4.42c1.17,0,1.38,1.89.63,4.39s-2.15,4.46-3,4.49c-2.94.1-6.67,9.63-4.39,11.73,1.72,1.57,1.38,1.86-.77.85-1.68-.47-3.3.15-3.63,1.82s-2.2,3-4.17,3.23c-5,.5-6.35-10.33-1.12-19.39,4.36-7.57,6.69-18.05,3.25-18-3.73,0-18.1,5.41-18.81,7.13-.35.86-2.37,2.33-4.64,3-4.35,1.53-12.19,12.37-11.17,16.34.21,1.42-.39,2-1.2,1.19s-3,2.53-4.93,8.51c-3.08,9.29-.91,26.76,4.6,28.85.66.25,3.4,3.46,5,7.62S167.26,148,168,147c.53-.61,1.47-.41,1.64.72s3,3.44,6.45,5.42c4.15,2.41,6.66,5.35,7.65,9,.92,3.34,3.24,5.68,5.6,6.29s4.62,1.79,5,2.89c.49,1.38,2.42,2.18,3.87,2.15,2.44-.06,2.75.2,1.22,1.58-2.28,2-1.56,7.4,1.09,7.07,1.17-.14,1.32,2.28.55,5.17-.72,2.67-.68,6.55.09,7.93,2,3.58-.18,4.92-9.91,7.09-4.63,1-8.84,1.9-9.06,2.54-.39.37-3.79-.05-7.66-.72s-7.68-2.29-8.36-3.43c-.5-.86-5-4.24-9.7-7.29-9.47-6.11-13.25-12.64-9.79-15.21s5.37-2,6.93,1c4.7,8.92,20.41,12.81,30.54,8.49,4-2.59-.21-10.54-8-17.24-3.83-3.07-6.9-6.25-7.14-7.09-.55-2-14.35-13.71-16.16-13.55-.91.08-1.55,1.63-1.63,3.05-.13,2.3-1.52,1.82-4.13-.79-2.14-2.14-3.86-5.22-3.47-7.29.94-5.33,4.36-4.43,3.76.85-.3,2.64.63,4.61,1.84,4.5,3.63-.32,1-7.9-4.11-14.18-2.55-3.29-4.59-6.92-4.53-8.37s-.65-2-1.45-1.36c-.63.52-1.33-7.5.52-18.27,1.8-10.43,4.27-20.44,12.46-27.71a123.54,123.54,0,0,1,10-9.2,9.91,9.91,0,0,0,2.53-3.51c.5-1.37,3.43-2.81,6.19-3.26,2.57-.42,5.73-1.79,6.34-2.94a2.69,2.69,0,0,1,3-1.47c1,.25,2.28-.58,2.8-2s2.69-2.31,4.62-1.74a6.77,6.77,0,0,0,6.3-1.73c1.81-1.72,1.84-2.17.09-1.15-1.51.89-2.29.58-1.62-.57a10.39,10.39,0,0,1,5.1-3.44c.56,0,1.28-.28,1.84-.28C200.44,48.93,200.31,49.5,198.81,51.21ZM138.7,134.68c2.21,4.2,2.47,6.8.35,7-.91.07-2.28-1.58-3-3.56-1.07-3.11-.74-5.21.47-5.58C137.16,132.46,137.76,133.29,138.7,134.68Zm16.85-61.2c-.53,1.17-1.91,2.36-2.78,2.38-1.16,0-1.23-1.14-.7-2.32.67-1.47,1.67-2.36,2.82-2.38C155.76,71.15,156.21,72,155.55,73.48Zm17.62-14.16a4.61,4.61,0,0,1-3.25,2.35c-.86,0-1.08-1.16-.43-2.33a4.23,4.23,0,0,1,3-2.34C173.63,57,174,57.87,173.17,59.32Zm-5.33,118.82c3.23,1.1,6.13,6.38,4.72,8.65-.61.68-3-1.2-4.6-3.91-1.85-3.11-2.32-4.78-1-4.64Zm3-89c-.43,1.44-1.26,2.32-2.44,2.36-.89,0-1.54-.8-1.11-2.24a3.52,3.52,0,0,1,2.48-2.36C171,86.9,171.19,88,170.85,89.17Zm8.85,87.59c2.14,1.5.27,7.91-2.38,8.24-.88.11-2-1.89-2.58-4.43-.64-3.11.45-5,2.34-5A4.34,4.34,0,0,1,179.7,176.76Z"/><path class="cls-1" d="M234.15,47.65a4,4,0,0,1-2.89,2.21c-1.11,0-1.21-.83-.42-2.22.63-1.11,1.82-2.22,2.92-2.21C234.59,45.43,234.77,46.54,234.15,47.65ZM297,14.47a10.5,10.5,0,0,1,4.68,4.79c.76,1.86,2.18,3,2.86,2s.18,1.62-.92,6.12-.73,7.18.35,6.35.64.31-1,2.35c-1.47,1.82-2.91,5.25-2.48,7,.54,2.29.21,2.82-.59,1.83s-2.54.51-4.9,6c-2,4.68-2.1,7.18-1,6.48,1.31-.81,1.87-.53,1.39.77-1,2.59-7.41,2.42-11.32-.42-2.35-1.8-2.51-3.9,1.49-12.07,6.84-14,8.21-16.92,3-17-5-.1-13.62,5.17-14.3,8.67a2.19,2.19,0,0,1-2.42,1.86c-2.15,0-8.46,5.88-9.55,9.11-.55,1.08-1.44,1.42-2.21,1.08s-7,6.47-12.48,15.14S237.4,81,236.44,81.89c-.81.71-2.21,3.82-2.78,6.26a17.37,17.37,0,0,1-3.55,7.11c-1.43,1.4-3.81,9.11-4.65,16.55-1.37,12-.15,15.33,4.46,21.41,4,5.3,6.41,6.74,9.63,5.68s3.54-.68,1.67,1.2c-2,2.05-2.12,2.31.59,2.09,1.5-.13,3.45-1.17,3.93-2.45a3.93,3.93,0,0,1,3.09-2.11c1.5-.11,1.56.41.15,1.32-4.56,2.48-1.09,5.71,3.59,3.94,9.18-3.47,21-13.52,25.19-23.44-.29-1.78.06-2.41.92-1.85s2.39-.15,3-1.72c2.2-4,13.3-12.4,16.28-12.55,1.19,0,1.44.43.77,1.22s-.25,2.89.86,4.48c1.51,2.14,1.64,2.67-.08,1.51-2-1.37-3.53,3.73-2.84,9.48.31.74-.27,1.53-1.48,1.61-.9.06-5.33,4.64-9.69,10.08-9.21,13.49-21.36,21.65-37.51,23.57-13.14,1.57-15,1.44-15.79-2a6.91,6.91,0,0,0-4.64-4.74c-2.15-.38-4.35-2.06-4.63-3.94a5.8,5.8,0,0,0-3.3-4.08c-1.43-.49-3.06-2.75-3.24-5.18-.17-2.16-.85-4-1.75-3.95s-2.31-6-2-13.43a138.76,138.76,0,0,1,1.48-14.71c.67-7.07,3.85-15.63,5-14.31,1,.78,2-1.15,2.78-5s2.13-6,3.21-5.79,2.34-1.57,2.74-3.86,2.05-4.87,3.2-5.5,2.95-3.85,4.28-6.86,3-5.2,3.8-5.21c1.82-.28,11.23-11.2,14.3-16.38,1.61-2.73,5.88-6.53,9.41-8.67s6.91-4.82,7.13-5.92,1.83-1.89,3.64-1.84a6.65,6.65,0,0,0,4.86-2.07c2.26-3.25,13-7.58,17.41-7.69C296.41,14.17,296.72,14.46,297,14.47ZM256.73,161.4c1.93,1.67,2.44,3,1.55,3-1.19.13-3-1.33-3.94-2.81-1.24-1.91-1.78-3-1.18-3.1C253.45,158.51,254.63,159.57,256.73,161.4ZM286.52,38.51c-.22,1.83-1.1,4-1.83,4.5-.94.69-1.23.26-.54-1.06.83-1.59.06-2.66-1.56-2.68-2.43,0-2.28-.29.9-2.12a4,4,0,0,1,2.06-.78C286.35,36.38,286.68,37.2,286.52,38.51Zm-23.28,75.38a11.59,11.59,0,0,1,2.53,4.25c0,2.33-2.75,1.14-5-1.77-2-2.47-1.86-4.31-.66-4.38A4.73,4.73,0,0,1,263.24,113.89Zm19.81-38.77a3,3,0,0,1-2.29,2.12c-1.16,0-1.47-1-1.18-2a2.5,2.5,0,0,1,2.32-2.13C282.76,73.06,283.4,73.82,283.05,75.12Zm3.73,86.39c.76,2.53-4,3-6.23.64-1-1.22,0-2.1,1.77-2.28C284.4,159.66,286.4,160.24,286.78,161.51Zm30-142.86c-.71,4.76-.92,4.75-2.68,1.78a3.81,3.81,0,0,1-.07-4.28c.87-1.31,1.48-1.82,2-1.81C317.19,14.12,317.35,15.74,316.79,18.65Zm6.1-6.2c-1.75,2.61-4.51,2.52-4-.15a2.94,2.94,0,0,1,2.92-2C323.08,10.32,323.77,11.15,322.89,12.45Z"/><path class="cls-1" d="M302.5,111.13a2.32,2.32,0,0,1-1.87,2.11,1.65,1.65,0,0,1-1.72-1.91,1.93,1.93,0,0,1,1.89-2.11A1.67,1.67,0,0,1,302.5,111.13Zm27.15-52.59c1.17.74.74,1.24-1.52,1.27-1.69,0-2.65-.47-1.93-1a1.86,1.86,0,0,1,1.57-.52A2.23,2.23,0,0,1,329.65,58.54ZM349,56.34c-.21.74,1.62,1.2,4.19.93,2.86-.29,6.87,1.67,9.09,3.77s5.11,3.53,5.84,2.8c1.05-1,1.25-.74.74.46-1.2,2.84,1.21,20,2.47,19.06.63-.5,1,1.17.55,3.54-.45,2.15-.06,5.23,1,6.37,2.45,14.13,2.57,32.39.66,46.58-.8,4.12-1.18,8-.66,8.89.41.67.3,3.86-.12,7a25.76,25.76,0,0,0-.06,7.24c.94,3.05-5.52,12.08-8.41,12.41a28.25,28.25,0,0,1-8-1.05c-17.05-6-31.86-27.68-33.57-45.09-.19-2-1-2.92-2-2.08s-.84-.13-.18-2.71c2.34-9.14,1.82-21.16,3.29-31.5,1.78-12.54,3.37-31.65,11.59-41.94.37.5,2.66-.58,4.67-2.26A7,7,0,0,1,344.93,47C348.56,47.09,351,51.4,349,56.34ZM341.07,168c.41,1.21-.2,2-1.08,2.13a2.54,2.54,0,0,1-2.73-1.71,1.59,1.59,0,0,1,1.39-2.16A2.75,2.75,0,0,1,341.07,168ZM345,72.58C336.4,85,332.81,102.2,334.46,116.9c.68,6,1.93,12.35,2.1,13.78,1.26,10.09,6.65,20.51,13.4,28,5.47,6.07,10.22,7.8,6.88,2.75-1.09-1.61-1.36-2.56-.27-1.94,2.05.78,3.47-10.06,1.62-11.59-.75-.66-.17-2.42,1.21-4.46,1.18-1.75,1.46-4,1-4.66a1.8,1.8,0,0,1,.82-2.47c.81-.47.9-7.77.73-16.09-.26-12.36,1.79-49.78-8.46-52.71C352.11,67.12,347.55,69.83,345,72.58Zm8.54,68.69q2.88,3.39-2.69.23c-2-1.05-2.43-1.75-.93-1.87A4.33,4.33,0,0,1,353.54,141.27Zm12.88,37.8c1.05,1.12.78,1.89-.94,2.1a3.13,3.13,0,0,1-3.37-1.57c-.49-1.19-.1-1.73,1.05-1.87A4.09,4.09,0,0,1,366.42,179.07Zm-10-107.75c.32.93-.07,1.94-.93,2A2.79,2.79,0,0,1,353,71.41c-.38-1.12.1-2,1-2A2.62,2.62,0,0,1,356.39,71.32Zm.58,32.22c1.37,2.8,1.24,4.69.17,5.5-.89.66-2.09-.13-2.66-1.53-1.43-3.52-.68-6,.51-6C355.58,101.45,356.43,102.13,357,103.54Zm2.63,11.57c1.55,1.82,1.28,2.31-2.31,2.54-3.29.2-3.92-.24-2.18-2.27.88-.77,1.47-1.28,2.07-1.32A3.72,3.72,0,0,1,359.6,115.11ZM375.07,69c-.42,2.39-.43,2.4-3.43.08-2-1.63-1.92-1.87.93-1.93C374,67.08,375.28,67.76,375.07,69Zm-1.19,7.65c-.32,2.39-1.48,2.43-2.6.08a1.26,1.26,0,0,1,1.14-1.94A1.6,1.6,0,0,1,373.88,76.61Zm5.91,15c-.13,2.6-1.6,2.67-2.65.11a1.08,1.08,0,0,1,.69-1.92A1.81,1.81,0,0,1,379.79,91.56Z"/><path class="cls-1" d="M392.69,81.67a2.07,2.07,0,0,1-1.9,1.94,1.55,1.55,0,0,1-1.59-1.82,2.28,2.28,0,0,1,1.91-1.94A1.69,1.69,0,0,1,392.69,81.67Zm2.07,58.1c.33,1.84-.21,3.76-1.1,3.84s-2.15-1.7-2.48-3.55c-.37-2.08.24-4,1.14-4.07S394.4,137.69,394.76,139.77Zm64-96.28c1.88,2.36,2.12,6.76,1.69,19-.62,18,.66,22.17,4.82,25.09,2.67,1.87,2.68,2.09-.56,1.12s-3.9.18-1.19,18.78c1.58,10.83,4.43,22.14,5.77,25.11a56.69,56.69,0,0,1,3.62,11.12c.54,3,1.93,5.53,2.81,5.45,1.17-.1,1.63,2,1.48,4.47-.17,2.84.76,5,2.74,5.87s2.07,1.32.62,1.47-1.92,1.95-1.47,3.87c.56,2.36,1.64,3.09,2.86,2.12,1-.77,1.33-.65.91.12s-3,2.08-5.24,2.54c-4.91,1.42-7.82-1.19-13.91-16.28-2.64-6.56-5.7-12.2-7.26-12.67-1.22-.37-4.3-4.55-6.57-9.06s-5.39-9.21-7-10.22-3-2.72-3.06-3.61c-.23-2.45-5.42-6.75-8-6.71-1.71,0-1.77-.19-.35-.88,1.11-.54,1.36-2.33.69-4.1-1.67-4.19-7.9-11.59-7.9-9.09,0,1.13-1.47,2.11-3.54,2.21s-3.55-.74-3.55-1.65c0-1.14,1.2-1.88,2.67-2a2.59,2.59,0,0,0,2.41-3.29c-.37-1.69-1.81-3.19-2.86-2.84s-2,.08-1.74-.85c.65-2.77-2.24-9.18-4.76-10.15-2.12-.82-2.95,1-2.38,14.12,1,22.1,4.8,43.77,10.24,65.31,2.61,10.31,5,11.47,2.93,2-.72-3.25,0-6,1.17-6.09a2.75,2.75,0,0,1,2.78,1.57c.28,1.12-.14,1.85-1,1.93s-1.13,3.81-.42,8.33c1.29,8.36-1.17,16.18-5.68,16.74-1.4.17-3.13-1.28-3.73-2.84-7.43-19.54-13.69-40-16.21-60.86-1.54-12.81,1.51-36-3.93-42.26a2.48,2.48,0,0,1,.05-3c.73-1.1,1.86-8,2.87-15,1.57-11,3-13.43,6.75-16.73,3.48-3,4.27-3.06,3.68-.71-.42,1.64-.15,2.82.66,2.81s1.54,2.83,1.71,5.83c.18,3.23.87,5.58,1.46,5.34,1.92-1.42,6,4.07,5.55,7.53-.63,4.85,11,18.45,17.93,20.9,2.3.81,3.46,1.22,5.79,2l-5.53-.23L432,84.61c2.59,4,3.93,6,6.66,9.87,3.86,5.43,7.75,11.47,8.48,13.65,2.5,6.55,4.51,4.07,3.36-3.74-2.82-19.19-3.82-38.86-4.24-58.57-.48-.45.34-2.56,1.44-4.31A4.86,4.86,0,0,1,451.6,39C453.67,38.89,456.3,40.37,458.78,43.49Zm-44.21,15.3a1.6,1.6,0,0,0,1.69,1.82c.84,0,1.24-1,.84-1.86-.5-1-.83-1.84-1.39-1.83S414.79,57.4,414.57,58.79ZM417,120.35c-.91,3.26-2.35,3.82-2.58,1.31a4,4,0,0,1,1.52-3.07,1.36,1.36,0,0,1,.88-.28C417.07,118.29,417.12,119,417,120.35Zm3.66,13c1.56.34,2.92,1.38,3.07,2.28.32,2-2.33,2.32-4.11.77s-2-3.27-.52-3.38A6,6,0,0,1,420.61,133.33Zm5.33-69.23A2.26,2.26,0,0,1,424,66a1.62,1.62,0,0,1-1.5-1.8,2.08,2.08,0,0,1,1.92-1.88A1.49,1.49,0,0,1,425.94,64.1Zm18,28.34a1.78,1.78,0,1,1-3.52.16,2,2,0,0,1,1.76-1.87A1.63,1.63,0,0,1,444,92.44Zm22.71,73.44a1.46,1.46,0,0,1-1.28,1.92,2.08,2.08,0,0,1-2.17-1.55,1.57,1.57,0,0,1,1.28-1.92A2.28,2.28,0,0,1,466.69,165.88ZM464.91,41.66c-1.27,1.8-4.61,2.71-4.43,1.14,0-.45,1.47-1.13,2.89-1.8a2.9,2.9,0,0,1,1.36-.23C465,40.77,465.22,41.21,464.91,41.66ZM470,124c2.57,1.36,2.94,4.17.56,4.34-.9.07-1.94-.95-2.13-2.48-.14-1.08.05-2,.95-2A1.23,1.23,0,0,0,470,124Zm7,.4c3.2,3.92,2.91,4-1.65,1.2-3.49-2.17-4.73-4.27-2.34-4.43C473.53,121.08,475.49,122.48,476.92,124.35Z"/><path class="cls-1" d="M465.66,24.16c-.32,2-1.36,3.82-2.13,3.81s-1.26-1.81-.92-3.84c.31-1.81,1.39-3.6,2.14-3.59S466,22.36,465.66,24.16ZM525.88,8.4c2.37.26,9,.77,14.93,1.12,8.5.5,11.21,1.44,12.87,3.73,1.29,1.77,3.26,3.08,4.4,3.16,1.65.11,1.59.63-.33,2.28-1.53,1-10.65,2.65-20.52,3.44l-18.38,1.6c.18,11,.58,22.09,1.21,33.1.37,9.08,0,30.61,5,32.68,1.54.64,2.83.08.28,3.14-2.12,2.54-2.46,6.9-.64,22.76,1.25,10.86,1.91,19.61,1,19.68s-2.79-.83-4.46-2.18l.3,0c-1.67-1.35-4.07-6.85-5.41-11.86s-3.63-9.92-5.07-10.71c-1.86-1-1.55-1.25.81-.68,4,1,3.78-3.61-.25-5.51-2.45-.93-3.19-3.31-3.17-9.41,0-4.21-.67-8-1.78-8.46-.88-.33-.26-.76,1.39-.91C510,85.17,511,84,510.49,82.9a2.81,2.81,0,0,0-3-1.59c-1.4.29-1.5-.8-.25-3.84s.95-6.9-.41-12.85c-1.06-4.67-1.7-8.77-1.15-8.78.83,0,1.13-3.6,1.18-7.77s-.36-7.54-1.15-6.89c-.53.44-.81-2.59-.27-6.92.33-3,.5-4.54.85-7.57l-6.87.62c-3.82.2-10,1.05-13.86,1.69-12.41,1.71-13.61,1.72-15.38-.53-.88-1.13-1.46-4.27-1.08-6.74.63-4.05,1.55-4.6,4.59-3.76,1.85.52,3.71.06,3.81-.61.18-1.34,7.81-3,20.45-4.29,2.68-.39,7.38-1.1,10.41-1.56,3.21-.48,6.93-.73,8.12-.93A8.35,8.35,0,0,0,520,9.14c.7-.63,2.81-1,4.93-.76ZM479.52,39.82c-.9,3-1,3.1-2.13,0-.41-1.55-.5-3.66.08-4.21a1.9,1.9,0,0,1,1.38-.66C479.88,35.18,480.29,37.25,479.52,39.82ZM502.09,7.89c-1,.63-1.36-.91-1.16-3.54.18-2.42,1-4.37,1.7-4.35C504.45.06,504.06,6.62,502.09,7.89ZM521.86,41c-.77.65-1.59.23-1.64-.84a1.68,1.68,0,0,1,1.5-1.71C523.83,38.47,523.91,39.75,521.86,41Zm47.8,59c-1.08.87-1.46.52-1-.56a1.76,1.76,0,0,0-1.18-2.4c-1.83-.52-1.83-.88-.42-1C570.2,95.8,572.12,98.45,569.66,100ZM566.54,34.8c-.4,4.09-2.85,4.36-3.63,0-.34-1.86.43-3.31,1.71-3.32C566.16,31.5,566.76,32.63,566.54,34.8Z"/><path class="cls-1" d="M574.18,22.86c4.63.61,5.23,1,9.19,9.55a128.12,128.12,0,0,1,6,16.78c1.13,4.15,2.64,7.65,3.47,7.63s1.58,1.51,1.59,3.19.47,3.23,1.59,3.19c.83,0,1.62,1.7,1.62,3.39,0,2.63.25,3.24,1.92,2.15,1.22-.79,1.36-.24-.16,1.82-2,2.67-1,5.71,3.06,24,2.09,9.48,2.9,20.69,9.86,27.86,1.23.51.9,1-.46,1.22-1.9.25-2,2.33-.4,10.68,2.78,14,1.15,16.66-6.16,9.55-2.88-2.92-5.57-6.49-6-8.05-4.17-15.63-8.06-31.66-10.37-47.66-.9-6.21-2-9.84-3-9.19-.79.44-1.54-.39-1.29-2.19.23-1.61-1-4.65-2.43-6.63s-1.94-3.23-.8-2.62,1.27-.89.28-4.29c-.82-2.81-3.2-9.77-4.78-15.2-3.49-12-8.15-20.22-11.26-19.18-1.19.41-.9-.87.69-2.89a7.69,7.69,0,0,1,6.6-3.08Zm17,93.32a1.71,1.71,0,0,1,.88,2.35c-1.24,2.08-1.85,1.93-2.16-.66-.14-1.2.37-1.83,1-1.87C590.9,116.2,591.19,116.18,591.19,116.18ZM575.4,17.74c.21.82-.08,1.64-1.06,1.64a2.33,2.33,0,0,1-1.87-1.65c-.24-1,.34-1.63,1.06-1.63A1.91,1.91,0,0,1,575.4,17.74Zm31.52,135.43c3.27,1.48.86,4.05-4.29,4.12l-4.85.25,4.79-1c2.82-.65,4.19-1.83,3.53-2.68s-.64-.93-.07-1A1.85,1.85,0,0,1,606.92,153.17ZM606.19,92c-.61,3.62-1.69,4.27-2.21.9a3.91,3.91,0,0,1,1.25-3.25l.26-.21C606.11,89.57,606.23,90.36,606.19,92Zm-2-32.21c.2.8-.71,1.63-2.1,1.67a6.2,6.2,0,0,1-4-1.5c-.8-.92.16-1.62,2.1-1.67S603.9,58.75,604.16,59.75Zm3.52,14.35c.23,1-.49,1.62-1.63,1.66A2.07,2.07,0,0,1,604,74.23a1.42,1.42,0,0,1,1.34-1.66A2.39,2.39,0,0,1,607.68,74.1Z"/><path class="cls-1" d="M624.2,73.5a1.27,1.27,0,0,1-1.3,1.64,2.13,2.13,0,0,1-2.11-1.52A1.36,1.36,0,0,1,622.08,72,2.37,2.37,0,0,1,624.2,73.5Zm8.18,48.76c.16,1.55-.57,3.16-1.45,3.22s-1.9-1.44-2.06-3c-.19-1.75.52-3.36,1.4-3.41S632.2,120.52,632.38,122.26ZM673,40.6c3.19,2,6.17,5.69,11.12,16.1,7.26,15.29,8.84,18.91,13.78,21.39,3.18,1.59,3.18,1.77-.25,1s-2.66.18,1.93,16c2.68,9.26,5.05,19,6.17,21.5a31.38,31.38,0,0,1,2.39,9.56c.1,2.59,1,4.76,1.87,4.7,1.16-.07,1.25,1.68.58,3.85-.73,2.39-.38,4.27,1.31,5.07s1.67,1.17.23,1.28-2.36,1.64-2.47,3.3c-.13,2,.67,2.68,2.15,1.86,1.16-.64,1.47-.54.84.12s-3.54,1.73-5.84,2.09c-5.18,1.12-6.38-1.2-9.24-14.13-1.25-5.63-3.61-10.48-5.08-10.9-1.15-.32-3.69-3.93-5.66-7.76s-5.1-7.86-6.7-8.73-3-2.32-3.11-3.07c-.33-2.09-5.76-5.74-8.32-5.7-1.69,0-1.76-.17-.43-.75,1-.46,1.11-2,.23-3.47-2.16-3.55-9.66-9.8-9.2-7.69.21,1-1.08,1.79-3.11,1.88s-3.63-.61-3.79-1.38c-.2-1,.83-1.59,2.27-1.65a1.81,1.81,0,0,0,1.71-2.79c-.75-1.46-2.52-2.7-3.49-2.39s-2,.08-2-.7c-.09-2.35-4.87-7.73-7.72-8.54-2.46-.7-1.52.82,1.59,11.91,5,17.72,9.51,36.57,10.18,55.13.31,8.69,2.27,9.74,2.39,1.73,0-2.71,1.24-5,2.4-5.13s2.36.59,2.39,1.35a1.43,1.43,0,0,1-1.39,1.62c-.86.07-1.87,3.22-2.4,7-1,7.08-6.25,13.61-10.76,14a2.46,2.46,0,0,1-2.55-2.45c-.32-17-3-34.6-6.59-51.31-2.5-11.53-5.05-30.25-12-35.49a2.31,2.31,0,0,1-1-2.54c.32-.92-1.07-6.76-3.23-12.63-3.4-9.22-3.63-11.27-1.75-14.07,1.72-2.58,2.48-2.62,3.21-.65.51,1.38,1.39,2.36,2.19,2.34s3,2.33,4.73,4.86c1.82,2.69,3.59,4.66,4.06,4.45,1.21-1.21,7.65,3.9,8.88,6.27,4,7.7,16.05,14.19,25.37,17.52l6.34,1.69-5.55-.17-5.62-.37c3.73,3.35,5.54,5,9,8.33,4.88,4.6,9.47,9.73,10.42,11.59,3.15,5.57,5.21,3.52,2.88-3.19A223.15,223.15,0,0,0,662,42.77c-.71-.38-1.05-2.18-1-3.67a2.19,2.19,0,0,1,2.35-2.18C665.27,36.79,668.75,38,673,40.6ZM637.19,54.1a2.68,2.68,0,0,0,2.47,1.51c.83,0,.85-.79,0-1.57s-1.66-1.53-2.2-1.52S636.78,52.93,637.19,54.1ZM654.6,106c-.78,2.75-2.2,3.22-2.5,1.1a3.17,3.17,0,0,1,1.4-2.59,1.45,1.45,0,0,1,.85-.24C654.64,104.25,654.73,104.82,654.6,106Zm3.47,11c1.5.29,2.78,1.17,2.86,1.94.17,1.71-2.46,1.94-4.06.63-1.77-1.43-1.77-2.77-.31-2.86A6.6,6.6,0,0,1,658.07,117Zm-7.36-58.52a1.19,1.19,0,0,1-1.1,1.6,2.66,2.66,0,0,1-2.22-1.51,1.11,1.11,0,0,1,1.09-1.6A2.42,2.42,0,0,1,650.71,58.45Zm27.18,23.89a1.3,1.3,0,0,1-1.31,1.79,2.3,2.3,0,0,1-2.14-1.64,1.37,1.37,0,0,1,1.34-1.59A2,2,0,0,1,677.89,82.34Zm19.45,62.73a1.87,1.87,0,0,1-1.79,1.62,1.39,1.39,0,0,1-1.65-1.36,2,2,0,0,1,1.78-1.62A1.52,1.52,0,0,1,697.34,145.07ZM678,39c-.22,1.54-3,2.37-3.71,1-.2-.38.82-1,1.82-1.58a2.47,2.47,0,0,1,1.21-.22A.8.8,0,0,1,678,39Zm28.7,70.27c2.51,1.17,2.79,3.59.45,3.72a2.23,2.23,0,0,1-2-2.13c-.11-.94.08-1.7,1-1.75A1.25,1.25,0,0,0,706.66,109.23Zm6.82.37c3.08,3.39,2.77,3.49-1.64,1-3.39-1.89-4.62-3.68-2.28-3.81C710.15,106.79,712.09,108,713.48,109.6Z"/><path class="cls-1" d="M699.24,48.24c.51.94-.27,1.53-1.63,1.57a3.58,3.58,0,0,1-3.23-1.45c-.4-.75.26-1.53,1.61-1.57A4,4,0,0,1,699.24,48.24Zm5.29-.33c2.36,1.27,2.83,2.14,2,3.56s-1.38,1-2.92-1.82c-.93-1.69-1.46-2.63-.92-2.65A5.59,5.59,0,0,1,704.53,47.91ZM726.17,102a1.53,1.53,0,0,1-1.5,1.57,1.8,1.8,0,0,1-2-1.39c-.16-.93.32-1.51,1.49-1.57A1.89,1.89,0,0,1,726.17,102Zm-27.1-81.56c9.28,9.3,17.31,21.25,23.58,32.62,6.53,11.83,11.78,33.75,22.11,43.2,1.24.31,2.13,1.74,2.42,3.21.78,4,7.34,9,8.75,6.55,1-1.51,1.25-1.53,1.46-.07.16,1.09,1.1,1.59,1.9,1s1.26-1.61.53-2.41-.2-1.27,1-1.33c2.63-.13,5.57-8.89,3.61-10.83-.72-.51-.57-1.07.3-1.11,2-.1-.33-19-3.12-21.14-1-.89-.81-1.09.57-.58,1.77.66,1.6-1-1.2-5.54-2.48-4-4.53-6.37-5.31-5.79s-1,.22-.94-1.09c.33-3.18-2.93-8.87-4.82-8.82-.81,0-1.84-1.08-2.18-2.37-.48-1.83-1-2.21-2.24-1.24-.55.76-1.24.52-1.07,0s-.9-2.07-2.75-3.11c-2.23-1.27-1.88-1.72.78-1.15,1.94.42,3.85.09,3.68-.84,13.12-6.42,38.32,42.68,41.28,52.08,3.85,12.2,7.83,21.45,11.83,21.33,1.71,0,2.06.25.92.67-2.86,1.05-1,9.53,2.29,12.38,2.87,2.51,3,2.49-2.86,3.36-2,.29-4.85-.25-5.64-1.28l-.29,0c-.79-1-1.32-1.88-.45-1.93.58,0-.47-1.94-2.47-4.15s-5.21-9-7.6-14.92c-2.28-5.73-5.4-10.66-6.27-10.62s-1.25,1-1,2.24-.53,3.88-1.86,6.11c-1.18,2-1.71,4.08-1.18,4.43s-.09,2-1.16,3c-1.45,1.37-6.54,2.35-14.13,2.77-10.5.58-11.65.47-11.92-2.27a3,3,0,0,0-3.24-2.77c-1.46.08-2.1-.44-1.91-1.19,1.45-2.48-1.73-5.83-4.24-5-1.37.63-2.57.51-2.69-.23a172,172,0,0,0-9.57-28c-2.27-5-4.09-7.3-5.26-7a2.43,2.43,0,0,1-2.75-1c-.42-.93.93-1.45,1-1.55C718.65,64,704.47,35.66,697.6,33c-.45-.17-1-1-.49-1.51.75-.79,0-2.79-2.34-5.29S691.64,22.44,693,23c1.13.49,1.77.35,1.21-.4-1.1-1.5.35-2.76,2.08-2.87A4.75,4.75,0,0,1,699.07,20.47ZM709.93,25c.72.93.79,1.68-.22,1.7a4.31,4.31,0,0,1-2.8-1.65c-.57-.75-.4-1.51.35-1.52A3.73,3.73,0,0,1,709.93,25Zm45.53,63.55c.56,2-.33,3.15-2.65,3.26-2,.09-3.9-.38-4-.74-.14-.55.68-1.91,1.82-3,1.35-1.36,2.3-2.14,2.88-2.16C754.38,85.85,755,86.75,755.46,88.58Zm-4.68-54.46c0,1.06-.55,2.26-1.07,2.27s-.64-1.26-.49-2.23.49-2.25.74-2.26C750.48,31.89,750.84,32.9,750.78,34.12Z"/><path class="cls-1" d="M817.08,114.65a3.21,3.21,0,0,1-1.71,1.34,3.07,3.07,0,0,1-1.49-1.17c-.42-.66-.06-1.25,1.4-1.33S817.4,114.07,817.08,114.65ZM777.93,27.14c2.58.49,5.66,1.7,6.74,2.78,1.44,1.44,5.16,1.81,15.19,1.43,7.41-.27,12.82-.91,11.84-1.81-2.74-2.49,5.44-1.49,11.74,1.49,5.89,2.79,10.53,5.73,5.9,3.67-1.1-.51-2.15.35-2.43,1.55s-2.47,2.63-4.92,2.9c-2.2.24-7.78,1.53-12.66,2.78-8.16,2.46-8.56,2.76-5.09,6.6A155.4,155.4,0,0,1,814,60.87c3.86,5.5,6.52,8.54,8.42,8.83,3,.79,18-3.59,18.88-5.63.63-.75,3.08-.11,5.94,1.6,4.95,2.71,5.1,2.89,3.29,6.22a7.8,7.8,0,0,1-4.46,3.6c-1,.12-1.38,1.32-.73,2.74.8,1.77.24,2-1.48.6s-3.73-1.3-10,1l-8.16,2.86a85.52,85.52,0,0,1,4.88,15.27c2.62,10.82,2.84,15.21,4.28,14.78.86-.22,8.7-1.16,17.09-1.89,14.18-1.24,15.11-1.21,15.5,1.56.64,4.68-3,6.82-9.65,6.43-3.17-.18-5.8.29-5.83.82,0,.7-1.29,1.22-2.38,1.17-4.35-.19-16.72,3.32-18.57,5-1.58,1.45-3,1.57-7.49.23-7-2.09-8.27-5-5.15-9.65,2-2.77,3-7.08-1.71-21.6A135,135,0,0,0,802.6,65c-4.66-7.3-8.67-12.09-10.54-12.71-2.11-.7-2.7-1.39-1.89-2.16,1.08-1.51-11.8-17.4-15.32-18.61-5.48-1.89-4.89-4.5-.58-4.61A13.53,13.53,0,0,1,777.93,27.14Zm39.6,81.42a1.49,1.49,0,0,1-1.59,1.69,1.85,1.85,0,0,1-1.9-1.52,1.62,1.62,0,0,1,1.59-1.51A1.64,1.64,0,0,1,817.53,108.56Zm7.12,19.68a2,2,0,0,1-1.91,1.51c-1.15.07-1.66-.43-1.56-1.32a1.87,1.87,0,0,1,1.89-1.51C823.94,126.87,824.73,127.53,824.65,128.24ZM779.78,21.37c5.88,3,9.38,6,7.09,6.1-.76,0-2.82-1.22-4.75-3-1.74-1.62-3.39-2.46-3.64-1.94s-1.23-.17-2.08-1.43c-.7-1.06-.86-1.46-.61-1.47C776.28,19.6,777.39,20.13,779.78,21.37Zm43.09,44.84c1.11,1.79-.3,1.84-2.81.11-1-.7-.89-1.43,0-1.46A3.61,3.61,0,0,1,822.87,66.21Zm-5.15-10.06c.53.72.22,1.46-.61,1.49a4,4,0,0,1-3-1.36c-.66-.9-.24-1.46.86-1.5A3.6,3.6,0,0,1,817.72,56.15Zm-30.25-40.5c.88.71.53,1.46-1.18,1.5a8.3,8.3,0,0,1-4.65-1.36c-1.08-.9-.54-1.47,1.15-1.51A7.63,7.63,0,0,1,787.47,15.65Zm46.24,48.7c.59.89.37,1.44-.75,1.49a3.28,3.28,0,0,1-2.61-1.37.9.9,0,0,1,.73-1.48A3.2,3.2,0,0,1,833.71,64.35ZM816,22.26c.88.71.74,1.44-.51,1.48a7.18,7.18,0,0,1-4-1.36c-1.09-.89-.76-1.45.49-1.48A6.6,6.6,0,0,1,816,22.26ZM855.36,65c2.16,3.18,2.79,5.68,1.94,5.72-1.13,0-3.15-2.41-5.3-5.6s-3.48-5.68-2.37-5.72C850.46,59.37,853.19,61.81,855.36,65Z"/><path class="cls-1" d="M834.55,33.08c3.69,3.42,3.73,3.91.51,2.18a8.48,8.48,0,0,1-2.74-3.21c-.54-.72-.43-1.09-.23-.91A9,9,0,0,1,834.55,33.08Zm4-16.64a21.92,21.92,0,0,0,11.62,1.47c3.65-.45,6.15-.38,6.95.7a1.56,1.56,0,0,0,2.24.29,1.55,1.55,0,0,1,2.25.29c.53.72,3.29,1.73,5.8,2.19s13.59,4.31,24.08,8.51c11.42,4.36,21.94,8.94,30.57,17.08,13,12.28,24.23,26,14.19,44.85-2.57,5-5.06,9.68-4.49,10.19s-.52.93-2.53.63c-2.34-.36-3.47.14-3.34,1.36.32,3-8.67,9.61-13.92,10.53a38.22,38.22,0,0,1-9,.4c-2.28-.23-5.4-.91-5.74-1.49-4.56-7.64-5.9-26.27-11.91-39.14-8.67-14.86-20.21-26.81-32.65-38.52l-6,.2c-5.77.19-6.33,0-9.83-3.71-3.79-4.05-6-7.89-3.35-7,3.55,1.15,2.76-3.08-1.56-6.56-3.08-2.49-3.23-4-1-4C832.61,14.6,835.08,15.1,838.57,16.44ZM881.27,80c.33.7-.51,1.45-1.94,1.51-1.71.06-2.48-.68-2.34-1.34a2,2,0,0,1,1.91-1.51A2.17,2.17,0,0,1,881.27,80Zm8.35,21c.26,1.57-.17,2.82-1.33,2.87-.87,0-1.89-1.14-2.15-2.72s.35-2.84,1.22-2.88C888.52,98.19,889.36,99.39,889.62,101ZM875.36,61.35c1.2,1.59,1.24,2.85.12,2.89-.84,0-2.55-1.17-3.74-2.75s-1.34-2.85-.51-2.88C872.34,58.57,874.16,59.77,875.36,61.35ZM860,27.13l-4.39.51c9.32,7.83,18.49,15.59,26.53,24.78,10.73,11.34,19.52,25.7,22.75,40.84,3.16,14.84,1.37,16.12,4.17,14.25,1.38-1.11,2.69-2.74,2.59-3.62s1.91-3.23,4.43-5.27,4.21-4.58,4-5.45a1.68,1.68,0,0,1,1.74-2c.87,0,1.31-.5.59-.9s.56-4.62,2.12-9.3c4.44-15.35-7.1-26-17.22-35.25-2.6-1.9-5.69-4.33-6.89-5.2-2.66-1.93-14.37-6.95-26.5-10.92-5.58-1.82-9.78-2.78-12.84-2.68A1.81,1.81,0,0,0,860,27.13Zm51.8,64.79c1,.49.56,2-.58,3.2-1.35,1.47-2.48,1.87-2.6,1.34-.44-1.92,1.4-4.64,2.55-4.69C911.44,91.76,911.73,91.74,911.78,91.92ZM883.27,50c-.48.38-1.51-.13-2.7-1.35-1-1.06-1.36-2-.55-2C881.64,46.63,884.07,49.09,883.27,50ZM863,30.33c-.38.56-1.33.22-2.21-.48-1.1-.88-1.48-1.6-.46-1.63C862.37,28.15,863.73,29.2,863,30.33Zm61.53,81.75a2,2,0,0,1-2.08,1.65c-.87,0-1.73-.27-1.71-.62s.89-1.08,1.77-1.47a6.14,6.14,0,0,1,1.16-.39C924,111.41,924.53,111.56,924.52,112.08Zm7.54-2.4c1.19,2.56.3,2.94-1.45.75-.87-.83-.89-1.7-.32-2.07,0-.18,0-.18.28-.19A2.49,2.49,0,0,1,932.06,109.68Zm8.21-15c.44,1.74-1,1.8-2.6.1-1-.66-.66-1.38.21-1.41A2.38,2.38,0,0,1,940.27,94.65Zm7.19.77c1.58,6.61.43,7.87-2,2.71a9.3,9.3,0,0,1-.87-5.94c.38-.71.5-1.25.79-1.26C945.91,90.91,946.71,92.29,947.46,95.42Z"/><path class="cls-2" d="M944.82,20.71h1.07C943.63,20.7,944.88,20.72,944.82,20.71Z"/><polygon class="cls-2" points="922.65 21.44 923.04 21.36 919.78 21.66 922.65 21.44"/><path class="cls-2" d="M901.92,22.36c2,.36,7.5-.44,11.21-.46l.61.05,1.65-.36C910.9,21.81,905.09,22.33,901.92,22.36Z"/><path class="cls-2" d="M890.77,21.71c.7.2-2.38.29,2.59,0l-.47,0Z"/><path class="cls-2" d="M892.89,21.65c2.18-.1-1.45-.13,0,0Z"/><path class="cls-2" d="M882.8,22.18l2.86-.34c-.61-.12-3.18-.06-2.23-.2C880.48,21.85,881.1,22,882.8,22.18Z"/><path class="cls-2" d="M880.11,22.79l1.48-.18A3.12,3.12,0,0,0,880.11,22.79Z"/><path class="cls-2" d="M884.74,22.27l-3.15.34c.43.09.49.3,1.45-.14C882.8,22.68,883.41,22.46,884.74,22.27Z"/><path class="cls-2" d="M886.54,22.29c1.63.06,3.72,0,.84.39C892.88,22.32,892,22,886.54,22.29Z"/><path class="cls-2" d="M900.89,22.92h2.17l1.85-.27C904,22.8,900.75,22.77,900.89,22.92Z"/><path class="cls-2" d="M864.83,22.66c-.16.18,1,.4,1.24.6l2.11-.3C867.08,22.9,865,22.9,864.83,22.66Z"/><path class="cls-2" d="M866.07,23.26l-3.15.48C865.76,23.6,866.27,23.44,866.07,23.26Z"/><path class="cls-2" d="M879.66,23.57c1.72-.29,3.45-.54,5.18-.8-2.07.27-4.13.55-6.19.87Z"/><polygon class="cls-2" points="852.68 23.32 854.44 22.77 851.29 23.63 852.68 23.32"/><path class="cls-2" d="M844.62,23.87c1.3-.47-1.89-.55-.51-.88a35.23,35.23,0,0,0-5.67,1.1A26.71,26.71,0,0,1,844.62,23.87Z"/><path class="cls-2" d="M835.67,24.75c.88-.16,1.79-.4,2.77-.66A18.91,18.91,0,0,0,835.67,24.75Z"/><path class="cls-2" d="M857.5,24a5.88,5.88,0,0,0-2.55-.37l1.3.44Z"/><path class="cls-2" d="M856.29,24.1l0,0-2.71.15Z"/><path class="cls-2" d="M857.81,24l-.31,0A.31.31,0,0,0,857.81,24Z"/><path class="cls-2" d="M871.3,23.72c-1.85.35-5.71.91-1.91,1C870.7,24.36,868.52,24.27,871.3,23.72Z"/><path class="cls-2" d="M859.42,24.52l3.39-.13c-.08-.12-.71-.27.2-.47Z"/><polygon class="cls-2" points="857.79 24.8 859.42 24.52 858.17 24.57 857.79 24.8"/><path class="cls-2" d="M841.5,24.89a34.2,34.2,0,0,1-4.81.7c1.94,0,3.94-.13,5.83-.28C842.77,25.1,843.57,24.71,841.5,24.89Z"/><path class="cls-2" d="M848.7,24.54l-.33.06C848.58,24.63,848.74,24.64,848.7,24.54Z"/><path class="cls-2" d="M819,27l.29.1a.52.52,0,0,1,.06-.13Z"/><path class="cls-2" d="M842.86,25.39A10.56,10.56,0,0,0,846,25c-1.08.13-2.23.25-3.46.36C842.41,25.4,842.39,25.45,842.86,25.39Z"/><path class="cls-2" d="M830.75,25.41c.77.07,1.64.12,2.55.15A7.15,7.15,0,0,0,830.75,25.41Z"/><path class="cls-2" d="M847.87,24.48l.21,0C847.6,24.35,847.66,24.4,847.87,24.48Z"/><path class="cls-2" d="M847.87,24.48A16.29,16.29,0,0,0,846,25c.88-.11,1.69-.22,2.39-.35A4.11,4.11,0,0,1,847.87,24.48Z"/><path class="cls-2" d="M814.1,32c.18-.69,3.92-1.68,7.27-1.37,3.17-.83.85-2.6-2.11-3.51-.07.28,0,.53-3.33,1.22,1.21.25,7.47.09,4.73.93-4.37.78-3.63.15-5.81,0,1.91.61-5.47,1.77-4.37,2.89l3.81-.86C814.38,31.52,813,32,814.1,32Z"/><path class="cls-2" d="M825.61,26.63l1.37-.18a28.68,28.68,0,0,1-4.83-.43c-2.25.49-2.7.77-2.83,1l6.75-.5Z"/><path class="cls-2" d="M833.14,26c-1,.71-4.27,1.27-2.18,1.78,4-.4,2.76-.77,5.13-1.25-6.47.7,1.83-.49-2.9-.46,1.27-.21,2.41-.33,3.5-.44-1.18,0-2.32,0-3.39,0l.15,0h0c.29,0,.39.09.07.07l-.14,0c0,.1-.14.18-.26.26-1.9,0-.32-.14.26-.26,0,0,.07-.06.07-.09h0l-6.47.86C828.36,26.43,830.09,26.27,833.14,26Z"/><path class="cls-2" d="M866,26c-.21,0-.2-.06-.22-.09C865.38,26,865.22,26.1,866,26Z"/><path class="cls-2" d="M863.31,26a7.78,7.78,0,0,1,2.38-.4c1.35,0,0,.23.1.38.92-.21,3.21-.6.29-.6l-.46.1c-2.63,0-6-.32-5.59-.43A9.78,9.78,0,0,0,863.31,26Z"/><path class="cls-2" d="M848.07,26.21c-1.79.24-3.59.47-5.38.74l2.8.26-.17-.29C848.41,26.78,847.71,26.47,848.07,26.21Z"/><polygon class="cls-2" points="818.31 26.75 818.95 25.96 815.93 27.26 818.31 26.75"/><polygon class="cls-2" points="811.28 27.46 811.47 26.78 809.65 27.34 811.28 27.46"/><path class="cls-2" d="M424.59,118.28l-1.44.76A7.72,7.72,0,0,0,424.59,118.28Z"/><path class="cls-2" d="M435.66,115.14l.11-.63C435.35,115,435.2,115.25,435.66,115.14Z"/><path class="cls-2" d="M639.37,51.2c-2.48-.57-5.35-1.65-4.83-.49l.93,1A10.35,10.35,0,0,1,639.37,51.2Z"/><path class="cls-2" d="M525,83.86l.76.22L527,82.5Z"/><path class="cls-2" d="M524.71,89.47l-3.17-.07A15.26,15.26,0,0,0,524.71,89.47Z"/><path class="cls-2" d="M364.81,137.74l-1.4,1.71C366.18,138.59,364.77,138.38,364.81,137.74Z"/><path class="cls-2" d="M739.39,35.71a33.54,33.54,0,0,0-5,.09C736.82,36,738.87,36.6,739.39,35.71Z"/><path class="cls-2" d="M425.1,104.06c-.87.51-1.2.87-1.09,1.14C424.92,104.7,425.39,104.3,425.1,104.06Z"/><path class="cls-2" d="M728.58,36.57c.37.06.72.06,1.09.09a29.79,29.79,0,0,1,4.67-.86A10.36,10.36,0,0,0,728.58,36.57Z"/><path class="cls-2" d="M148.45,210.41c-.17,0-.36.09-.51.11S148.13,210.53,148.45,210.41Z"/><path class="cls-2" d="M85.4,232.07l2.49-1.13C87.44,231.13,86.69,231.47,85.4,232.07Z"/><path class="cls-2" d="M782.94,29.85c1.48-.21.22-.12,0,0Z"/><path class="cls-2" d="M790.58,32.29c-.3.12-.53.26-.54.45A1,1,0,0,1,790.58,32.29Z"/><path class="cls-2" d="M714.8,45l-.13,0C715.14,45.15,715.06,45.12,714.8,45Z"/><path class="cls-2" d="M785.23,30c-.57,0-1.23-.07-1.94,0C783.61,30,784.2,30,785.23,30Z"/><path class="cls-2" d="M784.88,29.64l1.31-.05C786.36,29.43,786.19,29.36,784.88,29.64Z"/><path class="cls-2" d="M780.87,30.12c.85-.1,1.65-.15,2.42-.18-.3,0-.43-.05-.35-.09Z"/><path class="cls-2" d="M263,167.27l-.34,0C261.34,168.16,262,167.88,263,167.27Z"/><path class="cls-2" d="M603.74,71.28a1.19,1.19,0,0,0,.15-.09h-.23Z"/><path class="cls-2" d="M598.7,73.34a5.85,5.85,0,0,1,5-2.15l-2.48-3.13Z"/><path class="cls-2" d="M398.28,126.49h3.93c-3.81,3.07-7.14,3.39-3.29,3.88-.64-3.86,13.87-4.57,13.23-8.48l2.61.08c-.69.17-.73.42-1.42.59,5.17.43,2.62-3.74,8.75-5,2.16-.31,3.78-.18,2.5.68l4.35-2.29c1.37-.32,1.24.44-.13.76l7-2.36,0,.12a36.15,36.15,0,0,1,3.84-3.22c2,0-.78.68-.18,1l3.64-2.08c1.89.54-1.07,2.46-3.82,3.1,4.78,2.81,2.95-2,11.52-1.91l-3.57,1.52c3,1.54,5.68-.06,10.26.15-1.2-.45-9.37-1.13-5.39-3.28a8.83,8.83,0,0,0,5-1.77c.42,1.38,2.56.42,5.35-.44l.32,1.89c2.89-1.38,2.38-2.25,3.94-3.57,3.43-.76,4.53.47,5.66,1.45,5.49-1.21-4.37-1.25,1.94-3.38,4.69-.58,7.67-2.13,12.77-4.68,3.34-.2-.24,1.28,1,1.5l2.41-2.22c.7-.14.6.37.55.63,2.21-1.2-.3-1.9,3.28-3.39.47-2.31,8.42,1,12.41-2.59,1.27.23-.25,1.29.28,1.91,5.91-3.2,5.13-2.49,9.81-5.86l4.74.11c-3.61-.58.14-3.27,3.45-5.54-1.32-.38-2.46-.72-3.19-.84l5.58-2.45c.78.13.35.91-.41,1.93.36-.25.7-.5,1-.71,2.25.16,1.43,1.5.2,2.91-.8-.19-1.6-.4-2.38-.62-1.16,1.49-2.19,3.07-1.62,4.09a5.88,5.88,0,0,1,1.78-1c-.3.4-.47.73-.25.87s.75-.41,1.58-1.13l1.84,1.74.11-.9,7.92-.62c4.93-3.46,8.95-7.64,17.45-10.53-1.81,2,.11,2.57.41,4.38-2.81-1.33-6.53,2.39-11.1,3.09,2.39-.36,2.08.62,1.55,1.06l7.6-3.64c.16,1.51,2,.69,4.19.8-2.26-2.51,5.53-3.33,8.59-5,.43.92-.13,2.08-4.17,2.78,4.89,1.13,4.91-4.69,9.65-3.85-1,.25-1.53.22-1.8.8,2.07-1.38,7.79-2,6.67-.83l-1,.24c6.54-1.15,19.69-4.42,20.14-7a12.06,12.06,0,0,1-.51,3.65q4.89-5.32,9.85-10.54c-.59,2.26,4.35,6.27-.77,8.6a15.36,15.36,0,0,0,6.68-1.55c-1.11-.06-3.25-2.38-1.85-2.87,4.43,1.41,3,.62,8.27,1.5-1.67-.09-.58-3.64,2-4-.3.55.84,3.07,0,3.59,1.86-1.47,3.71-2.94,5.58-4.37-1.44.86.26,2.67,1.82,3.26-.77-.47,5.38-1,7-1.68l-2.78-.18c7.11-1,6.1-5.69,13.12-6.9-.73.79-1.35,4.26,2.27,3.92,1.32-1.91,5.8-8.78,11.81-11l1.35.65,4.59-1.83a112.51,112.51,0,0,1-14.13,11.89c2.76.18.92.89,4.85,0,1.54.54-1.92,1.65-3.06,1.93l9.25-1.28c-.73-1.68,6.69-3.13,6.08-4.52L657,61.47c-.74-1.71,4.83-6.13,11.41-7,1.79.38-.68,3.34-.43,3.89.73-.77,6-2.33,6.64-2l-2.6,1.43c3.74,0,5.52-3.36,10.16-2.52,1.53-.16,4.87,1.36,5,.31-2.78-1.47-4.31-7.39-2.91-9.11.55.05,8.26.5,10.14,1.13,2.73,1-3.13,4.21-.8,5.11,0-.47,1.29-1.28,1.83-1.56,1.65.11-.42,1.51,3,.72.3-1.77,7-1.05,1.4-1.69,3.29-1,3.63-.26,7.58-1-1.44-.86,3-4.2,6.28-5.19-.13.44.71.86,1.12,1,7-1,10.78-.78,17.24-1.79.65.28,3.84.24,2.61,1.11a10.62,10.62,0,0,1,3.65-1.42c4,.7-4.41.91-1.24,2,.12-.92,5-2.05,7.73-3-1.07-1.23-6.6.7-9.36,1.72-.29-1.88,4.36-4.65,11-6.36,5.33-1.17,2.5.86,3.4.47,10.16-1.05,8.2-4.26,16.79-4,3.49.69.44,2.14,1.29,2.84-4.33,1-6.83.18-9.8.64l3.73,0A16.8,16.8,0,0,1,756,38.41c1.47.33,5.74-.28,10.64-.86s10.43-1.31,14.39-1.41c1.34-.53,3.69-1.2,2.5-1.46l-2.45.46c-2.38-.54,4.51-1.73,1.33-1.72A38.38,38.38,0,0,1,794,31.09l1,1c-.14-.31-3.14-.32-4.41.17,1.89-.7,7.35.68,9.31-1l-3.37-.39c3.27-.92,7.27-2.5,11.47-2.52-2-.86-.94.2-4-.74,2.74,1.27-10.65,1-6.34,2.21-3.2-1.16-5.31-.08-9.44-1,.17.36,1.5.58-2,.74a4.73,4.73,0,0,1-.72.41h-.24l.2,0c-.15.07-.16.08.07,0a5.44,5.44,0,0,1,1.85.39c-1.63,1-7.16,1.65-9,2.34-2.08.06.81-.55-.37-.84l-2.71,1c-.39-.84-5.68-.84-.88-1.91l-4.39.45a26.06,26.06,0,0,0-8.37.6c-2.1,0-5.08,1.67-3.38.71l-6.79,1.44-.1-.24c-3.39.36-6.83,1.2-10.4,1.86a38.87,38.87,0,0,1-11.31.8,38.54,38.54,0,0,1-8.4,1.44l-.88-.8c-2.88.7-8.93.34-10,1.47-3.55-2-14.28,1.48-19.49,1.85l0,1.29a78.23,78.23,0,0,0-11.16,2.62l.47,1.09c-3.61,1.56-9.85.75-15.79,1.93.33-.52,1.86-.67,3-.58-7.61-1.41-14.67,4.57-21.48,3.76a7,7,0,0,1-3.9.72,1.38,1.38,0,0,0,.39-.14l-.67.11c-.75-.07-1.52-.18-2.35-.22a9.27,9.27,0,0,0,2,.29,36.91,36.91,0,0,0-4.86,1.42l-1-1.16-.42.12c-1.9-.15-1.33.89-.18,1.69a12.17,12.17,0,0,0-2.27,1.25c-1.89-1.84-4.69,1.63-7.14-.26-1,1.33-9.09,2.62-9.58,5.19-.12-.3-.69-.33.29-.55-2.1.14-4.2.29-5.89,1.34L609.06,59l-4,3.22c-2.93-.47-4.18-.85-1.77-2.73-6.07,3.38-5.11,1.86-10.19,5.06l0-1.17c-2,.46-4.78,2.64-6.17,2-4.89-1.2-21.87,4.48-33.62,5.1,3,2.85-5.61-.3-5.44,2.42-.84-.65-2.52-.72-.86-1.85-5.57,2.14-9,.78-12.39,4-.86-.63.94-1.47.24-1.8-.42.29-1.66,1.15-2.37.82s.68-.88,1.5-1.45c-5.84,1.58-5.83,4.19-5.68,6.61-3.24-.36-4.69.16-6.45,2.21-1.23-.5-3.15-.86.42-2-2.07.4-12.8,2-12.53,3.92-.77-.32-2.9.57-3.38.94-4.61,1.1-5.05,1-9.5,2.41l1.32,0c-1.18,2.71-3.6,1.49-7.15,2.72l0-.25c-8.74.6-3.38,1.72-12.07,2.07l.83,1.26C479.9,94,478,94,475.47,94s-5.53-.13-7.75,1.11l1.93.3c-2.3,1.75-8.35-2-11.06-1.62-.64-.1.78-.67,1.52-1.08-7.3.18-.38,2-5.33,3.9-1.21-.7.51-2.81-3-2-1.92-.29-9,5.91-14.17,5.49,1.24.43,2.46.87.28,2.13-3.51,1.33-10.54.11-13.1,3.4-.51-.07-.74-.21-.82-.38-2.57,1.41-8.63,3.66-9.91,5.39-2-2-6.05,0-9.8,1.78s-7.15,3.59-7.76,1.49l-8.35,2.86.09-.49c-5.46,1.42-7,3-8.63,4.59-1.33.12-.55-.56-.51-.8-8.09,1.72-8.81,2.17-14.73,6.32l-1.1-1.08c-1.53,1.34-12,1.63-19.14,5.75,0-.17.11-.47.66-.86-4.06,2.22-9.49,3.1-14.12,4.16s-8.43,2.28-9.26,5l-5.3,3c7.45-2.18-.45,2.27,2.82,2-2.8,1.24-7.89,1.25-4.43-.2l.62,0c.53-2.74-9.36,2.37-9.69.78-7.16,2.61-14.38,4.8-21.44,7s-14,4.47-20.73,6.92l2.1,1-4.71,1.62c-1.36.09-2.08-.6,1.28-1.77-2.07-.22-5.34,2.8-5.32,3.16-6.73,1.85,1.91-2.73-.1-2l-2.67,1.14.68-.05c-2,1.45-1.94,2.17-6,3.61-2.63.66-1.62-.42-2.64-.1,0-.1-.38,0-1.54.54l-5.91,2.12,2.76.24c-2.4,1.54-5.55,2-2.37,2.28-4.71-.51-22.14,7.63-24.78,8-3.36,2.15-7,3.5-11.43,5.14,1.18-.23,2.25.6-1.64,1.93.57-2.74-7.37,1.79-11,1.54,3.13-.12-10.75,4.61-5.91,4.22-3.25,1.1-.48-.66-3.07-.16a106.53,106.53,0,0,1-12.31,5.08c-4.45,1.63-9.13,3.34-13.74,5.39-.07.27,1.62-.05-.26,1.08-1.78.33-3.55.66-5.32,1-1.8.88-1.25,1.83-4.88,2.56.54,0,1.35-.09.13.48-9.29,3.35-18.5,7.51-27.82,11.51q-7,3-14,6l-14,5.81c2.53-1,.88-.24-1,.61,1.24-.53,0,.16.31.13q-3.9,1.56-7.76,3.22c-1.35.75-8.21,3.69-9,4.11l2.43-1.08c-1.6.75-.46.27,1.05-.29A18.11,18.11,0,0,1,78.12,236c1.82-.79,4.26-1.71,7-2.69a90.25,90.25,0,0,0,8.77-3.46c1.37-.43-1.09.56-.34.38a57.44,57.44,0,0,1,6.79-2.74l-.37.2c9.66-3.73,13.87-5.15,24.89-8.93l-1-.08a34.14,34.14,0,0,1,4-1.19c2.44-1.62-6.6,2.42-4.41.85,1.71-.2,5.84-1.73,9.84-3.22s7.89-2.91,9.17-2.73c3.61-1.33-1.28-.17,2.32-1.52l1.08,0,.75-.75c2.39-.81,3.75-.83,3.95-.58-.59.18-1.61.67-2.21.92,3.23-.71,8.61-3.26,9.72-3.52l-3.56,1c4.87-2,10.35-3.92,15.77-5.93s10.8-4,15.39-6.16l-.85-.07c7-3.29,6-1.76,13.83-5l-.26.19a26.73,26.73,0,0,1,5.73-2.65c-1.86,1.15,4.12-.51,1.65.92,7.62-3.56,3.69-2,8.37-5.29l1.44.21c1.56-1.23,1.59-1.59,5.51-3.23-3.06,1.76,2.92.1-.46,2.18,8.93-1.52,11.88-6,16.56-5.09,3.14-3.32-7.67,1.47-5.66.29-2,0,2.65-2.57,5.35-3.33,2.69-.92,5.49.92,12.23-1.46-.68.22-.67.4-1.34.62,2.72-.35,4.69-2.45,8.1-2.66,1.28-1.89,4-1.34,4-3.15l-6.05,2.56c3.35-1.66,5.95-4.77,12.08-5.84a14.06,14.06,0,0,1-3,2.2c1.87-.09,3.14-1.46,5.08-1.55.1,1.87-7.42,2.94-10.72,5.52,2.06,0,6.7-3.64,5.44-1.21,1.9-3.22,6.78-1.95,10.73-5.3l.06,1.13a16,16,0,0,1,3.35-1.84l-2,2.17c3.31-2.41,7.52-1.41,10.86-3.23-7.45,2.54-2.12-.71-5.54-.41,8.69-4.56,6.24.93,16.39-2.94-1.34.61-5.47,1.07-3.46-.16a23.92,23.92,0,0,1,6.19-.67c6.76-2.48-1.45-.79,1.23-2.43,2.79.58,3.17-1.66,6-3.1l.41,1.13c8-1.84,1.25-3.08,8.56-4.54l-2.41,2.6,3.51-1.63-.3,1.58c3.64-2.31,5-2.47,9-3.34-1.19-.54-.22-2.31,3.23-3.48,2.6,0-.94,1.57,3.9-.19-.85,1.11-1.75,2.44-4.25,2-.09.46-.84,1.09-.94,1.55,2.82,0,6.45-1.85,8.22-2.43a8.09,8.09,0,0,1-2,.33l6.54-4c1.27.1.51.76-.25,1.4,1.4-.6,2.2-1.48,4.29-2.27-.22,1.17.25,2.16-2.59,3.59l6.4-3.28c.6.29,3.87.09,3.11.74,4-.58,8.59-4.83,13.84-5.6a4.23,4.23,0,0,1,1.67-1.11c4.76-1.24,9.32-1.23,14.42-4.41l3.75.92c4.23-1.74-5-1.1,2-4,5-2.16,2.43,1,4.4,1,2.26-1.72,6.1-5,11.31-4.9C401,125.83,399.69,125.91,398.28,126.49ZM452,109.81c-1,.59-2.8,2.06-3.8,1.46C448.9,109.36,450,109.86,452,109.81ZM533.7,84.54c-.67.66-2,.74-3.45.55A9,9,0,0,1,533.7,84.54Zm233-52.1-.11.06C764.12,32.39,765,32.44,766.71,32.44Zm5.09-.16c.49-.19.44-.32.21-.43a6.43,6.43,0,0,1-2.75.51C769.65,32.57,770.33,32.67,771.8,32.28ZM245.56,166.08l1-.1C244.59,167.05,245.08,166.57,245.56,166.08Z"/><path class="cls-2" d="M524.77,88.81a1.28,1.28,0,0,1-.64-.64C523.77,88.5,523.83,88.78,524.77,88.81Z"/><path class="cls-2" d="M365.07,137.42l-.17,0a.5.5,0,0,0-.09.28Z"/><path class="cls-2" d="M695.68,52.94a5.64,5.64,0,0,1-2.07-.26C693.6,53,694.11,53.15,695.68,52.94Z"/><path class="cls-2" d="M798.33,27.94l-3.2.54a10.83,10.83,0,0,1,2.94,0C798,28.28,797.32,28.05,798.33,27.94Z"/><path class="cls-2" d="M826.91,30.06c.46-.14,1-.11,1.45-.25l-.16-.33C826.19,29.71,824.82,30.13,826.91,30.06Z"/><path class="cls-2" d="M801.66,30.46c.34.68,2.33.2,4.57-.16a2.58,2.58,0,0,1-.4,0C806.39,29.3,804,29.86,801.66,30.46Z"/><path class="cls-2" d="M806.75,30.23a19.07,19.07,0,0,1,2.09-.23C809.06,29.59,808,30,806.75,30.23Z"/><path class="cls-2" d="M778.12,31c1.1.08.55-1.08,1.2-.82C780.38,29.07,772.32,32.21,778.12,31Z"/><polygon class="cls-2" points="803.76 32.57 802.85 31.8 801.67 32.65 803.76 32.57"/><path class="cls-2" d="M785.88,34l3.63-.17c-.07-.15.38-.3.93-.43C788.22,33.67,785.76,33.77,785.88,34Z"/><path class="cls-2" d="M790.44,33.44a14,14,0,0,0,2.88-.5C792.7,33,791.35,33.21,790.44,33.44Z"/><polygon class="cls-2" points="798.87 33.44 797.78 33.38 795.23 33.62 798.87 33.44"/><path class="cls-2" d="M747.18,38.93l-3.87.85c-.35.44.75.52,2.19.16C746.4,39.55,747.84,39.2,747.18,38.93Z"/><path class="cls-2" d="M759.44,40.15a3.78,3.78,0,0,1-1.83-.54l.06,1.31Z"/><path class="cls-2" d="M748.08,42.15c-.34.42-5.52,1.92-.58,1.09C747.84,42.81,751.72,41.92,748.08,42.15Z"/><polygon class="cls-2" points="688.95 49.79 689.94 49.6 689.36 47.08 688.95 49.79"/><path class="cls-2" d="M638.56,65.9c4.71-.28.76-1.92,5.06-2,1-.86-3.52,0-2.52-.76C638.46,64.44,636.94,64.35,638.56,65.9Z"/><path class="cls-2" d="M641.1,63.19c.42-.2.86-.42,1.33-.7A6.28,6.28,0,0,0,641.1,63.19Z"/><polygon class="cls-2" points="75.28 236.53 72.54 237.78 74.32 236.99 75.28 236.53"/><path class="cls-2" d="M70,239l-.66.28-1.64.76Z"/><path class="cls-2" d="M461.07,111.32l.09-.51c-.58-.36-1.27-.21-2.65.09Z"/><polygon class="cls-2" points="421.48 121.12 422.16 120.96 420.41 119.68 421.48 121.12"/><path class="cls-2" d="M389.31,132.92c1.36-.33,2.83-1.15,4.19-1.49C390.67,132.59,388.33,131,389.31,132.92Z"/><path class="cls-2" d="M856.56,228.37l.79.44Z"/><polygon class="cls-2" points="839.88 219.72 840.2 219.82 837.67 218.69 839.88 219.72"/><path class="cls-2" d="M824.19,211.81c1.32,1.09,5.72,2.78,8.47,4.3l.43.29,1.37.42C831.05,215.12,826.54,213.1,824.19,211.81Z"/><path class="cls-2" d="M816.23,206.71c.43.43-1.88-.78,1.92,1l-.33-.23Z"/><path class="cls-2" d="M817.82,207.53c1.65.84-1-.69,0,0Z"/><path class="cls-2" d="M810.15,203.74l2.25.94c-.4-.34-2.32-1.36-1.57-1.08C808.57,202.54,809,202.91,810.15,203.74Z"/><path class="cls-2" d="M807.91,203.08l1.16.48A2.64,2.64,0,0,0,807.91,203.08Z"/><path class="cls-2" d="M811.54,204.62l-2.47-1.06c.28.25.24.42,1.13.5C809.94,204.11,810.48,204.2,811.54,204.62Z"/><path class="cls-2" d="M812.86,205.38c1.17.72,2.73,1.57.46.64C817.53,208,817.06,207.42,812.86,205.38Z"/><path class="cls-2" d="M823.2,211.79l1.6.91,1.47.57C825.54,213,823.16,211.63,823.2,211.79Z"/><path class="cls-2" d="M796.68,196.65c-.2.06.57.72.66,1l1.69.65C798.23,197.76,796.7,196.9,796.68,196.65Z"/><path class="cls-2" d="M797.34,197.61l-2.53-1C797,197.73,797.41,197.82,797.34,197.61Z"/><path class="cls-2" d="M807.25,203.47c1.39.5,2.77,1,4.15,1.56-1.63-.66-3.27-1.31-4.92-1.92Z"/><polygon class="cls-2" points="787.42 192.1 788.95 192.43 786.27 191.75 787.42 192.1"/><path class="cls-2" d="M781.25,189.17c1.15.19-1.17-1.2,0-.86a28.93,28.93,0,0,0-4.65-1.54A22.32,22.32,0,0,1,781.25,189.17Z"/><path class="cls-2" d="M774.27,186.11c.72.24,1.49.44,2.32.66A16.63,16.63,0,0,0,774.27,186.11Z"/><path class="cls-2" d="M790.7,194.61a5,5,0,0,0-1.73-1.33l.77.86Z"/><path class="cls-2" d="M789.77,194.17l0,0-2.06-1Z"/><path class="cls-2" d="M790.94,194.72l-.24-.11A.25.25,0,0,0,790.94,194.72Z"/><path class="cls-2" d="M801,200.11c-1.51-.5-4.59-1.69-1.84,0C800.3,200.34,798.73,199.37,801,200.11Z"/><path class="cls-2" d="M791.91,195.78l2.55,1.31c0-.12-.41-.49.35-.26Z"/><polygon class="cls-2" points="790.58 195.31 791.91 195.78 790.96 195.3 790.58 195.31"/><path class="cls-2" d="M778.52,188.63a30,30,0,0,1-3.85-1.49c1.45.79,3,1.54,4.43,2.22C779.37,189.31,780.12,189.35,778.52,188.63Z"/><path class="cls-2" d="M784,191.35l-.26-.09C783.85,191.37,784,191.44,784,191.35Z"/><path class="cls-2" d="M761,180.87l.18.2.09-.07Z"/><path class="cls-2" d="M779.31,189.56a9,9,0,0,0,2.49,1c-.85-.36-1.75-.74-2.7-1.17C779,189.38,778.94,189.41,779.31,189.56Z"/><path class="cls-2" d="M770.36,184.55c.54.37,1.16.77,1.82,1.17A6.17,6.17,0,0,0,770.36,184.55Z"/><path class="cls-2" d="M783.39,191l.18.06C783.25,190.75,783.27,190.82,783.39,191Z"/><path class="cls-2" d="M783.39,191a12.81,12.81,0,0,0-1.59-.43c.69.28,1.34.53,1.92.73A2.52,2.52,0,0,1,783.39,191Z"/><path class="cls-2" d="M755.33,182.53c.42-.43,3.59.38,5.93,2,2.69.7,1.71-1.56-.1-3.46-.17.18-.25.37-3-.48.78.68,5.48,3.16,3.1,2.65-3.55-1.24-2.74-1.4-4.3-2.4,1.16,1.25-4.77-1-4.42.32l3.16,1C755.74,182.28,754.55,182.05,755.33,182.53Z"/><path class="cls-2" d="M766.06,183.33l1.09.43a23.36,23.36,0,0,1-3.39-2.33c-1.87-.56-2.31-.54-2.51-.43l5.21,2.43Z"/><path class="cls-2" d="M771.9,186c-1,.1-3.68-.83-2.35.41,3.13,1.37,2.36.57,4.31,1.21-5.07-2.17,1.56.39-2-1.55,1,.37,1.92.76,2.76,1.12-.87-.47-1.71-.95-2.49-1.42l.1.09h0c.19.16.24.23,0,.08a.26.26,0,0,1-.1,0,.57.57,0,0,1-.31.08c-1.41-.77-.17-.23.31-.08a.36.36,0,0,0,.09,0h0l-5.13-2.05C768.18,184.32,769.52,184.91,771.9,186Z"/><path class="cls-2" d="M796.14,199.64c-.14-.11-.12-.13-.12-.16C795.68,199.38,795.54,199.35,796.14,199.64Z"/><path class="cls-2" d="M794.18,198.47a6.64,6.64,0,0,1,1.93.69c1,.58-.09.17-.09.32.76.22,2.62.89.46-.33l-.37-.11c-2-1.07-4.34-2.74-4-2.64A8.52,8.52,0,0,0,794.18,198.47Z"/><path class="cls-2" d="M782.82,192.33c-1.42-.57-2.84-1.14-4.28-1.69l2,1.35v-.28C782.84,192.88,782.45,192.37,782.82,192.33Z"/><polygon class="cls-2" points="760.62 180.38 761.42 180.07 758.65 179.78 760.62 180.38"/><polygon class="cls-2" points="755.13 177.99 755.55 177.57 753.98 177.23 755.13 177.99"/><path class="cls-2" d="M431.88,84.76l-1.37,0A7.33,7.33,0,0,0,431.88,84.76Z"/><path class="cls-2" d="M441.36,87l.35-.42C441.21,86.77,441,86.93,441.36,87Z"/><path class="cls-2" d="M618.33,124.26c-1.6-1.45-3.27-3.43-3.37-2.37l.26,1.16A9,9,0,0,1,618.33,124.26Z"/><path class="cls-2" d="M520.31,101l.47.47,1.56-.66Z"/><path class="cls-2" d="M517.77,105l-2.3-1.37A12.62,12.62,0,0,0,517.77,105Z"/><path class="cls-2" d="M379.67,74.35l-1.74.68C380.33,75.54,379.38,74.81,379.67,74.35Z"/><path class="cls-2" d="M698.62,154.29a27,27,0,0,0-3.77-2C696.58,153.46,697.87,154.73,698.62,154.29Z"/><path class="cls-2" d="M438.16,74.48c-.85,0-1.24.14-1.27.38C437.76,74.87,438.27,74.77,438.16,74.48Z"/><path class="cls-2" d="M690.28,150.44c.25.19.51.34.77.52a25.23,25.23,0,0,1,3.8,1.3A8.68,8.68,0,0,0,690.28,150.44Z"/><path class="cls-2" d="M189.75,38.32l-.43-.12S189.46,38.28,189.75,38.32Z"/><path class="cls-2" d="M134.2,28.18l2.31.2C136.1,28.34,135.4,28.27,134.2,28.18Z"/><path class="cls-2" d="M733.21,168c1.19.46.21,0,0,0Z"/><path class="cls-2" d="M737.84,173c-.27,0-.5,0-.59.11A.82.82,0,0,1,737.84,173Z"/><path class="cls-2" d="M676.61,151l-.1,0C676.8,151.2,676.75,151.15,676.61,151Z"/><path class="cls-2" d="M734.84,169.07a15.46,15.46,0,0,0-1.41-.84C733.65,168.38,734.08,168.64,734.84,169.07Z"/><path class="cls-2" d="M734.73,168.66l1,.51C735.91,169.12,735.81,169,734.73,168.66Z"/><path class="cls-2" d="M731.57,167.35c.67.28,1.28.57,1.86.88-.21-.15-.29-.22-.22-.22Z"/><path class="cls-2" d="M292.21,53.94a1.49,1.49,0,0,1-.25-.13C290.64,53.92,291.2,54,292.21,53.94Z"/><path class="cls-2" d="M583.68,124.32a.86.86,0,0,0,.16,0l-.17-.09Z"/><path class="cls-2" d="M579.11,123.75a5,5,0,0,1,4.56.47l-.54-3.34Z"/><path class="cls-2" d="M409.05,79.92,412,81.54c-4.08.69-6.68-.46-4,1.5,1.13-3.12,12.14,2.38,13.29-.78l1.89,1.14c-.58-.16-.71,0-1.29-.15,3.64,2.46,3.48-1.68,8.51,0,1.73.67,2.87,1.44,1.56,1.54l4.17.11c1.14.34.73.84-.41.51l6.13,1.15-.06.09a29,29,0,0,1,4.17-.79c1.43.83-.86.17-.56.68l3.56,0c1.17,1.18-1.82,1.37-4.11.7,2.36,4.06,3-.23,9.29,3.37l-3.26-.36c1.6,2.39,4.22,2.31,7.51,4.37-.69-.83-6.45-4.72-2.61-4.66a7.54,7.54,0,0,0,4.41.76c-.27,1.19,1.72,1.37,4.13,1.89l-.54,1.53c2.7.18,2.69-.67,4.38-1,2.86.86,3.15,2.23,3.58,3.42,4.56,1.38-2.71-2.73,2.84-1.69,3.7,1.52,6.54,1.6,11.37,1.84,2.55,1.23-.71.84.14,1.54l2.7-.64c.57.18.29.51.14.68,2.13,0,.57-1.53,3.83-1.14,1.3-1.51,5.82,4.2,10.24,3.23.84.7-.72.85-.59,1.53,5.7.08,4.83.29,9.68-.26l3.46,2c-2.43-1.92,1.45-2.35,4.84-2.65a27.46,27.46,0,0,0-2-2l5.14.51c.52.42-.12.82-1.1,1.25.37,0,.72-.08,1-.13,1.6,1.06.44,1.71-1.06,2.24-.51-.47-1-1-1.5-1.45-1.48.62-2.9,1.36-2.89,2.35a4.91,4.91,0,0,1,1.72,0c-.39.17-.65.35-.55.54s.73,0,1.64-.17l.63,2,.46-.62,6.11,2.83c5.07-.51,9.78-1.94,17.25-.55-2.17.74-1,1.95-1.51,3.41-1.53-2.15-5.81-.94-9.48-2.32,1.91.73,1.28,1.32.71,1.43l7.11.46c-.5,1.18,1.16,1.32,2.77,2.33-.63-2.8,5.46-.17,8.4-.1-.07.85-1,1.47-4.23.32,3.14,2.86,5.57-1.43,8.72,1.15-.82-.21-1.22-.47-1.66-.15,2.1-.16,6.57,1.78,5.27,2.15l-.82-.22c5.31,1.86,16.37,4.9,17.78,3.17a10.21,10.21,0,0,1-1.88,2.48q5.82-1.89,11.64-3.7c-1.37,1.43.61,6.44-4.13,6a12.94,12.94,0,0,0,5.57,1.63c-.8-.51-1.41-3.1-.17-2.89,2.68,2.88,2,1.71,5.48,4.54-1.19-.76,1.08-2.93,3.12-2.19-.45.29-.65,2.63-1.49,2.66q3-.48,5.94-.92c-1.43,0-.92,2.08,0,3.16-.37-.66,4.4,1.47,5.85,1.66l-2-1.28c5.65,2.23,6.86-1.68,12.55.34-.86.28-2.76,2.59,0,3.83,1.77-.86,7.92-4.07,13.3-3.25l.73,1,4.15.54a96.19,96.19,0,0,1-15.37,2.93c2,1.28.32,1,3.56,2,.92,1-2.1.44-3.06.16l7.37,2.9c.15-1.55,6.23.45,6.36-.82l-8.67-1.22c.16-1.57,6.11-2.52,11.34-.46,1.16,1-1.88,2.18-1.93,2.7.86-.27,5.37.75,5.73,1.27l-2.51,0c2.77,1.53,5.47-.19,8.55,2.35,1.19.51,3,3,3.53,2.28-1.44-2.24-.12-7.24,1.63-7.93.39.26,5.89,3.8,7,5,1.58,1.9-4.06,1.81-2.71,3.44.2-.34,1.48-.41,2-.39,1.17.76-.94.94,1.91,1.76,1-1.18,5.62,2.14,1.72-.67,2.87.6,2.8,1.32,6,2.4-.71-1.22,3.93-1.86,6.79-1.22-.28.27.17.93.4,1.23,5.53,2.16,8.29,3.89,13.47,5.83.37.48,2.73,1.77,1.47,1.9a9,9,0,0,1,3.28.47c2.7,2.19-3.63-1.16-1.75,1,.47-.64,4.51.54,6.94,1-.28-1.35-5.17-2.21-7.62-2.6.56-1.52,5.15-1.63,10.78-.13,4.42,1.35,1.49,1.67,2.32,1.76,7.94,3.43,7.82.25,14.06,4,2.29,1.95-.56,1.76-.22,2.63-3.61-1.08-5.13-2.7-7.51-3.59l2.75,1.56a14.24,14.24,0,0,1-4.81-1.58c1,.85,4.35,2.17,8.22,3.77s8.24,3.36,11.2,4.93c1.21.16,3.22.64,2.46,0l-2-.68c-1.54-1.39,4,.59,1.69-.72a32.7,32.7,0,0,1,9.54,3.09l.33,1.17c0-.29-2.19-1.54-3.33-1.71,1.69.27,5.15,3.55,7.29,3.13l-2.33-1.69c2.8.68,6.41,1.17,9.52,2.89-1.13-1.47-.78-.24-2.68-2.22,1.5,2.07-8.27-3.69-5.59-1-1.89-2.19-3.9-2.26-6.57-4.64,0,.34.86,1-1.8-.29a4.08,4.08,0,0,1-.7,0l-.18-.1.14.1c-.14,0-.15,0,0,0a4.63,4.63,0,0,1,1.2,1.06c-1.62.09-6-1.75-7.6-2-1.56-.82.83-.07.07-.77l-2.42-.37c.06-.78-3.85-3,.14-1.77L723,163.87a22,22,0,0,0-6.43-3c-1.57-.84-4.44-.88-2.79-.87l-5.61-1.76,0-.21c-2.65-1.15-5.53-1.95-8.45-2.95a32.74,32.74,0,0,1-8.68-4.09,33.48,33.48,0,0,1-6.81-2.42l-.32-1c-2.41-.68-6.73-3.45-8-3.07-1.79-3-11.17-4.83-15.17-6.72l-.52,1a66.89,66.89,0,0,0-9.33-2.69l-.1,1c-3.32-.34-7.59-3.53-12.46-5.12.45-.25,1.64.28,2.44.8-5-4.19-12.73-2.7-17.43-6.12a6.08,6.08,0,0,1-3.18-1.08,1.55,1.55,0,0,0,.35,0l-.54-.19c-.52-.36-1.05-.76-1.64-1.14a8.29,8.29,0,0,0,1.35,1,32.34,32.34,0,0,0-4.18-1l-.28-1.28-.36-.09c-1.35-.89-1.35.11-.83,1.18a10.18,10.18,0,0,0-2.2,0c-.63-2.14-4.14-.74-5.17-3.15-1.3.56-7.8-1.84-9.22-.14,0-.27-.38-.53.44-.29a10.82,10.82,0,0,0-4.9-1.45l-.28-1.63-4.27.72c-2-1.56-2.73-2.36-.18-2.74-5.88,0-4.54-.75-9.62-.49l.51-.86c-1.65-.47-4.63,0-5.38-1.1-3.11-2.91-18-5.76-26.94-10.18,1,3.34-4-2.54-5-.46-.36-.83-1.57-1.58.12-1.72-5-.73-6.94-3.15-10.8-2.21-.36-.82,1.31-.69.93-1.23-.43,0-1.7.16-2.09-.38s.87-.37,1.71-.45c-5-1.25-6,.68-6.94,2.53-2.24-1.61-3.53-1.82-5.68-1-.69-.87-2-1.94,1.16-1.33-1.69-.56-10.28-3.82-10.88-2.31-.43-.54-2.38-.77-2.88-.7-3.86-1.09-4.17-1.33-8-2.16l1,.53c-2,1.51-3.28-.39-6.41-.95l.13-.18c-6.7-3.17-3.2-.12-9.77-3.47l.09,1.28c-.65,1.18-2.09.41-3.91-.66s-4-2.39-6.18-2.39l1.29,1c-2.42.34-5.34-4.93-7.49-5.78-.43-.34.85-.17,1.57-.17-5.47-2.89-1.13,1.36-5.56.67-.6-1,1.54-1.86-1.35-2.72-1.3-1-9.11.63-12.74-1.82.73.84,1.46,1.67-.67,1.69-3.15-.47-7.83-4.28-11.09-2.92-.35-.26-.46-.46-.44-.62-2.49,0-7.9-.88-9.56-.12-.65-2.26-4.45-2.55-8-2.75s-6.77-.31-6.36-2.12l-7.35-1.35.27-.32c-4.62-1.22-6.45-.71-8.28-.19-1-.46-.17-.64,0-.81-6.69-2.08-7.41-2-13.5-1.43l-.36-1.26c-1.69.36-9.53-3.76-16.52-3.68.09-.12.27-.31.84-.36-3.92,0-8.29-1.66-12.15-2.79s-7.17-1.81-8.93-.12l-5.17,0c6.4,1.47-1.27,1.49,1.26,2.62-2.57-.25-6.34-2.35-3.19-2l.46.28c1.52-1.8-7.9-2.13-7.48-3.44-6.38-1-12.62-2.41-18.77-3.68s-12.2-2.5-18.18-3.48l1.15,1.6-4.16-.76c-1-.5-1.29-1.3,1.68-.77-1.44-1-5.1-.15-5.23.13-5.74-1.43,2.54-1.23.76-1.53l-2.45-.26.52.24c-2.06.25-2.33.8-5.9.19-2.22-.6-1-1-1.91-1.16,0-.1-.28-.18-1.36-.24l-5.25-.89,1.94,1.32c-2.41.14-4.93-.81-2.69.7-3.28-2.33-19.52-3.54-21.63-4.34a48.13,48.13,0,0,1-10.58-.94c1,.32,1.41,1.38-2,.74,1.56-1.79-6.18-1.73-8.77-3.43,2.36,1.21-9.85-1.05-6.12.67-2.86-.53-.08-.69-2.2-1.39a90.58,90.58,0,0,1-11.2-1.36c-4-.63-8.13-1.31-12.38-1.71-.16.17,1.22.64-.64.69-1.45-.5-2.9-1-4.35-1.45-1.69-.1-1.68.83-4.66-.13.41.19,1,.49-.11.4-8.25-1.38-16.78-2.12-25.32-3q-6.4-.63-12.8-1.35l-12.73-1.51c2.28.31.75.19-1,0,1.14.13,0,.13.17.22q-3.52-.45-7.06-.83c-1.3,0-7.6-.68-8.34-.7l2.24.21c-1.5-.11-.46,0,.9.23a15.26,15.26,0,0,1,2.79.55c1.67.16,3.85.5,6.3.92a76.12,76.12,0,0,0,7.9,1.08c1.2.25-1,0-.4.14a46.82,46.82,0,0,1,6.15.79h-.36c8.68,1.26,12.38,1.95,22.08,3.73l-.67-.46a31.22,31.22,0,0,1,3.48.79c2.47-.18-5.87-.94-3.61-1.19,1.34.56,5,1.14,8.6,1.7s7,1.12,7.91,1.78c3.21.51-.88-.66,2.34-.15l.81.42.86-.24c2.1.39,3.12.94,3.16,1.2-.51-.11-1.46-.17-2-.24,2.68.82,7.71,1.17,8.63,1.44l-3-.71c4.4.57,9.26,1.39,14.1,2.16s9.63,1.54,13.92,1.83l-.6-.41c6.56.49,5.14,1.18,12.28,2.06l-.27,0a22.56,22.56,0,0,1,5.33.42c-1.85.08,3.25,1.33.84,1.36,7.1.53,3.54.08,8.37-.43l1,.75a12.79,12.79,0,0,1,5.4-.1c-3,0,2.12,1.28-1.24,1.41,7.22,2.58,11.26.5,14.34,3.11,3.69-1.15-6.27-2.09-4.3-2.13-1.51-.83,3-.81,5.33-.24s3.67,2.95,9.64,4c-.59-.12-.66,0-1.25-.1,2.16.87,4.48.14,7.09,1.39,1.73-.86,3.55.69,4.23-.68L284,52.86c3.17.17,6.37-1.06,11.34.7a11.79,11.79,0,0,1-3.12.38c1.42.71,2.93.23,4.4,1-.7,1.43-6.7-.9-10.21-.37,1.5.89,6.46.09,4.52,1.37,2.74-1.59,5.82,1.37,10.12.53l-.42.87a12.9,12.9,0,0,1,3.23,0l-2.33.8c3.44-.41,6.13,2.07,9.36,2.11-6.56-1.21-1.28-1.41-3.93-2.6,8.31.23,4.23,3.28,13.33,4.62-1.24-.1-4.48-1.48-2.49-1.54a20.23,20.23,0,0,1,4.85,2.06c6,1-.74-1.18,1.91-1.28,1.83,1.59,3,.09,5.73.2l-.16,1c6.7,2,2.19-1.76,8.2.19l-2.86.92,3.27.25-.88,1c3.64-.19,4.69.24,8,1.27-.65-.89.8-1.8,3.83-1.23,1.94,1-1.34.77,3,1.48-1.09.47-2.3,1.07-4-.27-.26.3-1.08.46-1.34.76,2.08,1.17,5.53,1.31,7.08,1.61a6.52,6.52,0,0,1-1.62-.59l6.48-.22c.9.6.06.76-.77.92,1.28.14,2.25-.17,4.11.1-.65.78-.71,1.71-3.4,1.58l6.09.24c.32.46,2.82,1.67,2,1.83,3.16,1.22,8.35,0,12.54,1.6a3.83,3.83,0,0,1,1.69-.13c4,1.07,7.4,3,12.48,2.73L396.41,79c3.85.47-3.26-2.9,3.15-2.12,4.56.46,1.36,1.78,2.82,2.59,2.38-.34,6.59-1.2,10.38,1.06A23.73,23.73,0,0,1,409.05,79.92Zm46.56,9.94c-.95,0-2.92.35-3.41-.5C453.54,88.25,454.18,89.09,455.61,89.86Zm70.85,15.22c-.77.21-1.74-.27-2.78-1A7.61,7.61,0,0,1,526.46,105.08Zm193.69,58.11h-.1C718.26,162.09,718.89,162.49,720.15,163.19Zm3.83,2c.44.06.45-.05.33-.23a5.41,5.41,0,0,1-2.24-.76C722.27,164.52,722.73,164.87,724,165.19ZM279.85,45.84l.78.35C278.73,46.16,279.29,46,279.85,45.84Z"/><path class="cls-2" d="M518.09,104.53a1.16,1.16,0,0,1-.2-.74C517.48,103.89,517.41,104.12,518.09,104.53Z"/><path class="cls-2" d="M380,74.23l-.14,0a.43.43,0,0,0-.18.17Z"/><path class="cls-2" d="M659.2,148.89a4.57,4.57,0,0,1-1.43-1C657.64,148.06,658,148.39,659.2,148.89Z"/><path class="cls-2" d="M745.37,173l-2.59-.93a9.26,9.26,0,0,1,2.18,1.22C745,173.09,744.58,172.64,745.37,173Z"/><path class="cls-2" d="M765.6,186.39c.39.09.78.34,1.17.42l0-.31C765.21,185.84,764,185.58,765.6,186.39Z"/><path class="cls-2" d="M746.78,176.22c0,.65,1.64,1.11,3.45,1.78l-.31-.13C750.76,177.33,748.77,176.76,746.78,176.22Z"/><path class="cls-2" d="M750.64,178.16a17.19,17.19,0,0,1,1.64.7C752.61,178.65,751.65,178.51,750.64,178.16Z"/><path class="cls-2" d="M729.16,166.89c.78.51.85-.57,1.23-.12C731.65,166.38,724.39,165.36,729.16,166.89Z"/><polygon class="cls-2" points="747.46 178.65 747.11 177.7 745.88 177.84 747.46 178.65"/><path class="cls-2" d="M733.65,172.32l2.75,1.38c0-.14.4-.06.86.07C735.53,173,733.67,172.07,733.65,172.32Z"/><path class="cls-2" d="M737.26,173.77a12.22,12.22,0,0,0,2.34.83C739.1,174.4,738,174,737.26,173.77Z"/><polygon class="cls-2" points="743.49 177.26 742.71 176.77 740.73 175.89 743.49 177.26"/><path class="cls-2" d="M703,159.89l-3.22-1c-.43.17.35.69,1.56,1C702.21,160,703.41,160.37,703,159.89Z"/><path class="cls-2" d="M711.59,165.88a3.35,3.35,0,0,1-1.13-1.16l-.51,1Z"/><path class="cls-2" d="M702.37,162.64c-.43.18-4.88-.86-.88.57C701.92,163,705.15,164,702.37,162.64Z"/><polygon class="cls-2" points="655.53 143.77 656.34 144.04 656.96 141.94 655.53 143.77"/><path class="cls-2" d="M611.63,134.78c3.6,1.74,1.36-1.1,4.55.66,1.06-.24-2.61-1.44-1.55-1.61C612.17,133.66,611.08,133,611.63,134.78Z"/><path class="cls-2" d="M614.63,133.83c.39,0,.82,0,1.28,0A5.32,5.32,0,0,0,614.63,133.83Z"/><polygon class="cls-2" points="124.88 27.28 122.34 27.07 123.98 27.23 124.88 27.28"/><path class="cls-2" d="M120,26.93l-.6-.07-1.53-.12Z"/><path class="cls-2" d="M461.71,94.74l.29-.33c-.29-.51-.86-.69-2-1Z"/><polygon class="cls-2" points="428.41 85.57 428.99 85.73 428.22 84.06 428.41 85.57"/><path class="cls-2" d="M399.77,81c1.14.32,2.56.32,3.7.64C400.91,81.27,399.82,79.16,399.77,81Z"/></g></g></svg>