<svg xmlns="http://www.w3.org/2000/svg" viewBox="0 0 385.6 74.89"><defs><style>.cls-1{fill:#fff;}</style></defs><g id="Layer_2" data-name="Layer 2"><g id="Main"><path class="cls-1" d="M4.88,53.21V18.07Q4.88,9.36,10,4.68T25.4,0H50Q60.33,0,65.4,4.68t5.07,13.39V53.21H60v-17H15.32v17ZM15.32,26.5H60V18.07a10.76,10.76,0,0,0-.46-3.35,5.22,5.22,0,0,0-1.66-2.37,7.7,7.7,0,0,0-3.13-1.44,21.55,21.55,0,0,0-4.9-.47H25.47a21.45,21.45,0,0,0-4.89.47,7.64,7.64,0,0,0-3.13,1.44,5.07,5.07,0,0,0-1.66,2.37,10.74,10.74,0,0,0-.47,3.35Z"/><path class="cls-1" d="M79.83,53.21V0h48a30.83,30.83,0,0,1,8.2.94,13.24,13.24,0,0,1,5.44,2.77,10.65,10.65,0,0,1,3,4.53,19.12,19.12,0,0,1,.93,6.23V38.74a19.06,19.06,0,0,1-.93,6.22,10.69,10.69,0,0,1-3,4.54A13.36,13.36,0,0,1,136,52.27a30.83,30.83,0,0,1-8.2.94ZM90.27,42.77h37.59A9.15,9.15,0,0,0,133,41.65a3.79,3.79,0,0,0,1.62-3.35V14.9A3.79,3.79,0,0,0,133,11.56a9.15,9.15,0,0,0-5.14-1.12H90.27Z"/><path class="cls-1" d="M154.57,53.21V0h48a30.91,30.91,0,0,1,8.21.94,13.24,13.24,0,0,1,5.44,2.77,10.63,10.63,0,0,1,3,4.53,18.85,18.85,0,0,1,.94,6.23v5.26a18.85,18.85,0,0,1-.94,6.23,10.63,10.63,0,0,1-3,4.53,13.24,13.24,0,0,1-5.44,2.77,30.91,30.91,0,0,1-8.21.94h-8.06l27.22,19H203l-25.2-19H165v19ZM165,24.84h37.66a9.17,9.17,0,0,0,5.14-1.12,3.79,3.79,0,0,0,1.62-3.34V14.9a3.79,3.79,0,0,0-1.62-3.34,9.17,9.17,0,0,0-5.14-1.12H165Z"/><path class="cls-1" d="M227.72,53.21V0h10.44V53.21Z"/><path class="cls-1" d="M248.24,53.21V0h65.59V10.44H258.68v7h42.26v9.72H258.68V53.21Z"/><path class="cls-1" d="M346.38,53.21V10.44H318.8V0h65.59V10.44H356.82V53.21Z"/><path class="cls-1" d="M380.24,59.15H0v3.66H378.91s5,3,2.66,7.53l-2.33,4.55s6-5.89,6.33-8.78S383.4,59.15,380.24,59.15Z"/></g></g></svg>